<svg width="120" height="120" viewBox="0 0 120 120" fill="none" xmlns="http://www.w3.org/2000/svg">
<g id="Social/dislike">
<g id="social-media">
<g id="Vector">
<path d="M38.5859 59.125C44.582 67.5391 62.8984 89.125 62.8984 98.8555C62.1484 108.156 64.7734 107.273 64.8984 107.531C88.4883 106.906 66.3242 71.0742 73.75 68.6992C79.3125 69.4062 94.5391 73.6016 100.93 69.2617C107.324 64.9258 106.324 60.5859 104.574 55.6797C111.324 48.3516 104.375 40.8125 104.375 40.8125C104.375 40.8125 108.25 34.4062 100.906 25.9375C104.113 18.1172 98.1875 12.5312 90.9883 12.5312H27.0078" fill="#E60000"/>
<path d="M42.5 50.0312C42.5 56.9336 36.9023 62.5312 30 62.5312H25C18.0977 62.5312 12.5 56.9336 12.5 50.0312V25.0312C12.5 18.1289 18.0977 12.5312 25 12.5312H42.5V50.0312Z" fill="#E60000"/>
</g>
<path id="Vector_2" d="M38.6992 38.4883C38.6914 38.0273 39.0547 37.6484 39.5117 37.6367C39.9805 37.6289 40.3711 38 40.3789 38.4688C40.3906 38.9375 40.0195 39.3281 39.5508 39.3359C39.082 39.3477 38.6914 38.9766 38.6797 38.5078L38.6992 38.4883ZM39.4805 26.832C39.2578 26.8438 39.0508 26.9414 38.9023 27.1055C38.7539 27.2734 38.6758 27.4922 38.6875 27.7109C38.6953 27.9297 38.7891 28.1367 38.9492 28.2852C39.1133 28.4375 39.3242 28.5156 39.543 28.5078C40.0117 28.5078 40.3945 28.125 40.3945 27.6562C40.3945 27.1875 40.0117 26.8047 39.543 26.8047L39.4805 26.832ZM38.6992 43.9766C38.7383 44.4336 39.1367 44.7734 39.5938 44.7383C39.8203 44.7227 40.0312 44.6172 40.1758 44.4453C40.3242 44.2734 40.3984 44.0508 40.3828 43.8242C40.3672 43.6016 40.2617 43.3906 40.0938 43.2422C39.9219 43.0977 39.6992 43.0234 39.4766 43.043C39.0078 43.0781 38.6562 43.4844 38.6875 43.9492L38.6992 43.9766ZM39.5195 32.2383C39.2969 32.25 39.0938 32.3555 38.9492 32.5195C38.8047 32.6875 38.7344 32.9062 38.75 33.125C38.7617 33.5664 39.1211 33.9258 39.5625 33.9375C40.0312 33.9375 40.4141 33.5586 40.4141 33.0859C40.4141 32.6172 40.0312 32.2383 39.5625 32.2383H39.5195ZM39.5195 48.4375C39.0625 48.4492 38.6992 48.8281 38.707 49.2891C38.7188 49.7578 39.1133 50.125 39.582 50.1133C40.0508 50.0977 40.418 49.707 40.4062 49.2383C40.3906 48.7695 40 48.3984 39.5312 48.4141L39.5195 48.4375ZM40.4062 54.6875V54.6484C40.3906 54.4297 40.2891 54.2227 40.125 54.0781C39.957 53.9336 39.7383 53.8594 39.5195 53.875C39.0508 53.8945 38.6914 54.2891 38.707 54.7539C38.7227 55.2227 39.1133 55.5859 39.582 55.5742C40.0469 55.5586 40.418 55.1719 40.4062 54.707V54.6875ZM34.1562 33.8828H34.1992C34.6133 33.875 34.9453 33.5391 34.9492 33.125C34.957 32.6953 34.6133 32.3398 34.1836 32.332C33.7539 32.3242 33.3984 32.6641 33.3867 33.0977C33.3789 33.5273 33.7188 33.8828 34.1484 33.8945L34.1562 33.8828ZM34.1562 59.332H34.1016C33.8945 59.3398 33.7031 59.4297 33.5664 59.5781C33.4258 59.7266 33.3555 59.9258 33.3633 60.1328C33.3633 60.5625 33.7109 60.9102 34.1406 60.9141C34.5742 60.9141 34.9219 60.5664 34.9258 60.1367C34.9258 59.7031 34.582 59.3516 34.1484 59.3516L34.1562 59.332ZM34.1562 53.9297H34.1172C33.707 53.9805 33.4023 54.3438 33.4219 54.7578C33.4414 55.1719 33.7773 55.5 34.1953 55.5117C34.625 55.5117 34.9766 55.1641 34.9766 54.7305C34.9766 54.3008 34.625 53.9492 34.1953 53.9492L34.1562 53.9297ZM34.9492 27.6797V27.6484C34.9414 27.4453 34.8516 27.2539 34.6992 27.1172C34.5469 26.9805 34.3477 26.9102 34.1445 26.918C33.7188 26.9375 33.3867 27.3008 33.4023 27.7266C33.4141 28.1523 33.7695 28.4883 34.1992 28.4805C34.625 28.4727 34.9648 28.1211 34.9609 27.6953L34.9492 27.6797ZM34.1367 37.707C33.9336 37.707 33.7383 37.7891 33.5977 37.9375C33.457 38.082 33.3789 38.2773 33.3828 38.4805C33.3867 38.9141 33.7422 39.2578 34.1758 39.25C34.6055 39.2422 34.9492 38.8867 34.9453 38.457C34.9375 38.0234 34.582 37.6797 34.1484 37.6875L34.1367 37.707ZM34.1367 43.1055H34.0938C33.8867 43.1133 33.6953 43.1992 33.5547 43.3516C33.4141 43.5 33.3359 43.6992 33.3438 43.9062C33.3438 44.3359 33.6875 44.6836 34.1172 44.6875C34.5469 44.6914 34.8984 44.3516 34.9062 43.9219C34.9141 43.4961 34.5781 43.1406 34.1484 43.125L34.1367 43.1055ZM34.1367 48.5078C33.707 48.5195 33.3672 48.8789 33.375 49.3086C33.3828 49.7383 33.7344 50.082 34.168 50.082C34.5977 50.0781 34.9453 49.7305 34.9492 49.3008C34.957 49.0859 34.8711 48.875 34.7188 48.7266C34.5625 48.5742 34.3516 48.4961 34.1367 48.5078ZM28.793 60.7695C28.9688 60.7617 29.1328 60.6836 29.25 60.5508C29.3672 60.4219 29.4297 60.25 29.418 60.0742C29.4102 59.6992 29.1016 59.3984 28.7266 59.4062C28.3477 59.4141 28.0508 59.7227 28.0547 60.1016C28.0625 60.4766 28.375 60.7773 28.75 60.7695H28.793ZM28.793 49.9688C29.1523 49.9531 29.4336 49.6484 29.418 49.2891C29.4023 48.9141 29.0859 48.625 28.7148 48.6367C28.3398 48.6523 28.0469 48.9648 28.0586 49.3359C28.0664 49.7109 28.375 50.0078 28.75 50L28.793 49.9688ZM28.793 44.5703C29.1406 44.5703 29.418 44.2891 29.418 43.9453C29.4375 43.668 29.2891 43.4102 29.043 43.2891C28.7969 43.168 28.5 43.207 28.293 43.3906C28.0898 43.5781 28.0156 43.8672 28.1133 44.125C28.207 44.3867 28.4492 44.5586 28.7266 44.5703H28.793ZM28.8242 39.1641C29.168 39.1328 29.4219 38.832 29.3945 38.4883C29.3945 38.207 29.2266 37.957 28.9688 37.8516C28.7109 37.7461 28.4141 37.8086 28.2188 38.0117C28.0273 38.2148 27.9766 38.5156 28.0938 38.7656C28.2109 39.0195 28.4727 39.1797 28.75 39.1641H28.8242ZM29.375 27.6758C29.375 27.3008 29.0742 27 28.6992 27C28.3281 27 28.0234 27.3008 28.0234 27.6758C28.0469 28.0391 28.3555 28.3164 28.7188 28.3008C29.0781 28.3047 29.375 28.0312 29.4062 27.6758H29.375ZM28.75 33.7812C29.1094 33.7656 29.3906 33.4609 29.375 33.1016C29.375 32.8203 29.2031 32.5664 28.9414 32.4688C28.6797 32.3672 28.3828 32.4336 28.1914 32.6406C28.0039 32.8477 27.957 33.1484 28.082 33.4023C28.207 33.6523 28.4688 33.8047 28.75 33.7812ZM28.75 55.3672C29.0938 55.3672 29.375 55.0898 29.375 54.7422C29.3906 54.4609 29.2266 54.1992 28.9688 54.0859C28.707 53.9688 28.4023 54.0312 28.207 54.2344C28.0078 54.4375 27.957 54.7422 28.0781 55C28.1992 55.2539 28.4688 55.4102 28.75 55.3867V55.3672ZM23.3672 28.2578C23.6758 28.2305 23.918 27.9844 23.9375 27.6758C23.9258 27.5195 23.8555 27.3789 23.7383 27.2773C23.6211 27.1758 23.4648 27.125 23.3125 27.1367C23.1641 27.1445 23.0273 27.207 22.9258 27.3164C22.8281 27.4258 22.7734 27.5703 22.7812 27.7188C22.7891 28.0352 23.0508 28.2891 23.3672 28.2812V28.2578ZM23.3672 39.0625C23.6758 39.0352 23.918 38.7891 23.9375 38.4805C23.9258 38.3281 23.8555 38.1836 23.7383 38.082C23.6211 37.9805 23.4648 37.9336 23.3125 37.9453C23.168 37.9492 23.0273 38.0156 22.9297 38.1211C22.832 38.2305 22.7813 38.3711 22.7891 38.5195C22.793 38.8359 23.0547 39.0898 23.375 39.0859L23.3672 39.0625ZM23.3672 43.3125C23.0469 43.3398 22.7969 43.6133 22.8008 43.9375C22.8086 44.2539 23.0703 44.5078 23.3867 44.5C23.5352 44.5 23.6758 44.4453 23.7773 44.3398C23.8828 44.2383 23.9375 44.0977 23.9375 43.9492V43.9141C23.9453 43.5938 23.6914 43.332 23.375 43.3242L23.3672 43.3125ZM22.793 49.2695C22.7891 49.4219 22.8477 49.5703 22.957 49.6797C23.0625 49.7891 23.2109 49.8516 23.3633 49.8516C23.6758 49.832 23.9258 49.5859 23.9492 49.2734C23.9453 48.957 23.6875 48.7031 23.3672 48.707C23.0625 48.7031 22.8086 48.9492 22.8047 49.2578L22.793 49.2695ZM23.3555 55.2578C23.3945 55.2617 23.4375 55.2617 23.4766 55.2578C23.6797 55.2383 23.8633 55.1094 23.9453 54.9219C24.0313 54.7305 24.0078 54.5117 23.8867 54.3438C23.7656 54.1758 23.5625 54.0898 23.3555 54.1133C23.0391 54.1406 22.8047 54.4219 22.832 54.7383C22.8398 55.043 23.0937 55.2852 23.3984 55.2812L23.3555 55.2578ZM23.3555 33.6562C23.5117 33.668 23.6641 33.6172 23.7812 33.5156C23.8984 33.4141 23.9727 33.2695 23.9805 33.1133C23.9609 32.8047 23.7148 32.5547 23.4062 32.5312C23.2539 32.5352 23.1133 32.6016 23.0078 32.7109C22.9063 32.8203 22.8516 32.9688 22.8555 33.1172C22.8555 33.4219 23.1016 33.6719 23.4062 33.6758L23.3555 33.6562ZM23.3555 60.6562C23.6758 60.6562 23.9375 60.3945 23.9375 60.0742C23.9023 59.7578 23.6328 59.5156 23.3125 59.5195C22.9961 59.5469 22.7617 59.8281 22.7891 60.1445C22.793 60.293 22.8555 60.4297 22.9648 60.5312C23.0703 60.6328 23.2148 60.6875 23.3633 60.6797L23.3555 60.6562ZM17.9609 32.7305C17.8125 32.7695 17.6992 32.9766 17.582 33.125C17.707 33.2422 17.8359 33.4453 17.9688 33.457C18.1016 33.4688 18.25 33.2734 18.4883 33.1016C18.2422 32.9258 18.082 32.75 17.9688 32.75L17.9609 32.7305ZM18.3047 38.4805C18.3047 38.3516 18.125 38.1992 17.9609 37.9766C17.7891 38.2109 17.582 38.3242 17.6055 38.4805C17.6328 38.6367 17.8359 38.75 17.9688 38.8828C18.0938 38.7578 18.3125 38.6367 18.3125 38.5L18.3047 38.4805ZM17.9375 43.5391C17.8047 43.5391 17.6563 43.7109 17.4258 43.9062C17.668 44.082 17.793 44.2891 17.9453 44.2578C18.0938 44.2266 18.207 44.0195 18.332 43.8828C18.207 43.7617 18.082 43.5547 17.9453 43.5547L17.9375 43.5391ZM18.3242 27.6641C18.1992 27.5313 18.0742 27.3633 17.9453 27.3516C17.8125 27.3359 17.6641 27.5312 17.4258 27.707C17.668 27.8828 17.793 28.0859 17.9453 28.0547C18.0938 28.0234 18.207 27.8125 18.332 27.6797L18.3242 27.6641ZM17.6016 49.293C17.6016 49.4297 17.8047 49.5547 17.918 49.6875C18.0547 49.5625 18.2695 49.418 18.3008 49.3047C18.332 49.1953 18.1328 49.0312 17.9609 48.7812C17.7812 48.9922 17.5938 49.1562 17.6016 49.293ZM18.3047 54.6797C18.3047 54.5508 18.125 54.4062 17.957 54.1875C17.7813 54.4258 17.5742 54.543 17.6016 54.6953C17.625 54.8438 17.832 54.9609 17.9609 55.0938C18.0859 54.9609 18.3047 54.8438 18.3047 54.707V54.6797ZM17.5742 60.1133C17.6992 60.2305 17.832 60.457 17.9609 60.4688C18.0937 60.4805 18.2422 60.2891 18.4805 60.1133C18.2383 59.9375 18.1133 59.7305 17.9609 59.7617C17.8125 59.793 17.6992 60.0078 17.5742 60.1367V60.1133ZM38.6992 21.8125C38.6992 21.8438 38.6992 21.875 38.6992 21.9141C38.7188 22.3672 39.0938 22.7227 39.5508 22.7109C40.0156 22.7148 40.3984 22.3398 40.4062 21.875C40.4141 21.4062 40.043 21.0234 39.5742 21.0117C39.1094 21.0039 38.7188 21.3711 38.707 21.8359L38.6992 21.8125ZM39.5234 15.5H39.4805C39.0234 15.5312 38.6758 15.9219 38.6992 16.3828C38.7148 16.8516 39.1055 17.2188 39.5742 17.207C40.043 17.1914 40.4141 16.8008 40.3984 16.332C40.3867 15.8633 39.9961 15.4922 39.5234 15.5078V15.5ZM34.1641 21.0547H34.1055C33.668 21.0547 33.3125 21.4102 33.3125 21.8516C33.3125 22.2891 33.668 22.6445 34.1055 22.6445C34.5391 22.6445 34.8867 22.293 34.8867 21.8633C34.8867 21.4297 34.5391 21.082 34.1055 21.082L34.1641 21.0547ZM34.8555 16.4297C34.8711 16.0078 34.5469 15.6523 34.125 15.625H33.9883C33.5781 15.6953 33.2969 16.0703 33.3438 16.4844C33.3906 16.8945 33.75 17.1992 34.1641 17.1758C34.543 17.1289 34.8359 16.8164 34.8555 16.4297ZM28.8242 22.5C29.168 22.4609 29.4102 22.1523 29.375 21.8125V21.7695C29.3438 21.3945 29.0156 21.1172 28.6406 21.1484C28.2656 21.1797 27.9883 21.5078 28.0156 21.8828C28.0469 22.2578 28.375 22.5352 28.75 22.5078L28.8242 22.5ZM28.75 17.0312C28.9219 17.0312 29.0859 16.9609 29.207 16.8359C29.3242 16.7109 29.3867 16.5391 29.375 16.3672C29.375 16.0898 29.2031 15.8359 28.9414 15.7344C28.6797 15.6328 28.3828 15.7031 28.1914 15.9102C28.0039 16.1172 27.957 16.418 28.082 16.6719C28.207 16.9219 28.4688 17.0742 28.75 17.0508V17.0312ZM23.9258 16.4062C23.875 16.1055 23.6016 15.8945 23.3008 15.9258C23.1523 15.9336 23.0195 16.0039 22.9219 16.1133C22.8242 16.2227 22.7773 16.3672 22.7891 16.5117C22.8164 16.8281 23.0938 17.0625 23.4141 17.0391C23.7266 16.9961 23.957 16.7266 23.957 16.4141L23.9258 16.4062ZM23.3359 22.418C23.6445 22.4258 23.9063 22.1875 23.9258 21.8828C23.9023 21.5703 23.6523 21.3281 23.3438 21.3047C23.1836 21.3125 23.0352 21.3789 22.9297 21.5C22.8242 21.6172 22.7695 21.7734 22.7812 21.9297C22.7812 22.0781 22.8398 22.2188 22.9453 22.3203C23.0508 22.4219 23.1914 22.4766 23.3359 22.4766V22.418ZM17.9883 22.2266C18.125 22.0859 18.293 21.9805 18.3008 21.8516C18.3047 21.7188 18.1133 21.582 17.9258 21.3516C17.7617 21.6016 17.5625 21.7305 17.6016 21.8828C17.6367 22.0313 17.8516 22.1328 17.9883 22.2578V22.2266ZM17.9062 16.0742C17.8008 16.207 17.6055 16.3828 17.6016 16.5117C17.5938 16.6445 17.793 16.7813 17.9766 17.0078C18.1367 16.7578 18.3359 16.625 18.3008 16.4766C18.2617 16.3242 18.0508 16.2266 17.9062 16.1055V16.0742Z" fill="#BD0000"/>
<path id="Vector_3" d="M42.5 36.25C42.5977 36.2188 42.6993 36.1992 42.8008 36.1992C43.043 36.207 43.2696 36.3125 43.4375 36.4883C43.6016 36.668 43.6914 36.9023 43.6797 37.1445C43.6719 37.3906 43.5665 37.6211 43.3868 37.7891C43.211 37.957 42.9688 38.0469 42.7266 38.0391C42.6407 38.0312 42.5547 38.0117 42.4766 37.9805L42.5 36.25ZM42.7891 35.5859H42.9375C43.4454 35.543 43.8204 35.1016 43.7813 34.5938C43.7618 34.3516 43.6485 34.125 43.461 33.9648C43.2735 33.8086 43.0313 33.7305 42.7891 33.75C42.6915 33.75 42.5938 33.7695 42.5 33.8008V35.5547C42.586 35.5859 42.6758 35.6055 42.7696 35.6133L42.7891 35.5859ZM42.7891 45.1484C43.2969 45.1562 43.711 44.75 43.7188 44.2422C43.7149 43.7344 43.3047 43.3203 42.793 43.3125C42.6954 43.3164 42.5977 43.332 42.5079 43.3633V45.0625C42.5938 45.0977 42.6836 45.1172 42.7735 45.125L42.7891 45.1484ZM42.7891 18.9766H42.9297C43.2696 18.957 43.5704 18.75 43.7149 18.4453C43.8555 18.1367 43.8165 17.7773 43.6133 17.5039C43.4102 17.2344 43.0743 17.0977 42.7383 17.1484C42.6524 17.1562 42.5665 17.1797 42.4883 17.2109V18.9297C42.5821 18.9648 42.6836 18.9844 42.7891 18.9805V18.9766ZM42.7891 14.2695C43.293 14.2656 43.7032 13.8594 43.711 13.3555C43.711 13.0234 43.5313 12.7148 43.2383 12.5547H42.5V14.1875C42.5899 14.2188 42.6797 14.2383 42.7735 14.2422L42.7891 14.2695ZM43.6563 39.1445C43.5782 38.9141 43.4102 38.7266 43.1954 38.625C42.9766 38.5195 42.7266 38.5117 42.5 38.5938V40.3125C42.586 40.3398 42.6719 40.3594 42.7618 40.3633C43.2735 40.3711 43.6954 39.9688 43.7071 39.457C43.7071 39.3398 43.6875 39.2266 43.6446 39.1172L43.6563 39.1445ZM42.8516 33.2578C43.0899 33.2461 43.3165 33.1406 43.4805 32.9648C43.6446 32.7891 43.7305 32.5547 43.7188 32.3125C43.7071 31.8047 43.293 31.3984 42.7891 31.3984C42.6954 31.4062 42.6016 31.4258 42.5118 31.457V33.1797C42.6211 33.2148 42.7305 33.2344 42.8438 33.2305L42.8516 33.2578ZM42.7813 42.7891H42.8243C43.3243 42.7773 43.7227 42.3633 43.711 41.8633C43.711 41.3516 43.2969 40.9375 42.7891 40.9375C42.6915 40.9375 42.5977 40.957 42.5079 40.9883V42.707C42.5938 42.7422 42.6836 42.7578 42.7735 42.7617L42.7813 42.7891ZM42.7813 30.9141H42.8204C43.3243 30.9102 43.7266 30.4961 43.7266 29.9922C43.7227 29.4883 43.3125 29.0742 42.8047 29.0703C42.7071 29.0703 42.6094 29.0859 42.5196 29.1172V30.8359C42.6055 30.8633 42.6915 30.8828 42.7813 30.8945V30.9141ZM42.7813 28.5117C43.2891 28.4922 43.6875 28.0703 43.6758 27.5625C43.6641 27.0547 43.2461 26.6523 42.7383 26.6641C42.6446 26.668 42.5547 26.6875 42.4688 26.7109V28.4375C42.5586 28.4766 42.6563 28.4922 42.7579 28.4922L42.7813 28.5117ZM42.7813 47.5625C43.2774 47.5273 43.6563 47.1016 43.6368 46.6055C43.625 46.3633 43.5196 46.1367 43.3399 45.9727C43.1602 45.8086 42.9219 45.7266 42.6797 45.7383C42.5977 45.7422 42.5118 45.7578 42.4297 45.7891V47.5C42.5313 47.5312 42.6329 47.5508 42.7383 47.5508L42.7813 47.5625ZM42.7813 26.1562C43.2813 26.1211 43.6602 25.6914 43.6368 25.1953C43.625 24.9531 43.5196 24.7227 43.3399 24.5625C43.1602 24.3984 42.9219 24.3125 42.6797 24.3242C42.5977 24.332 42.5118 24.3477 42.4297 24.375V26.1016C42.5313 26.1328 42.6329 26.1484 42.7383 26.1484L42.7813 26.1562ZM42.7813 23.7383C43.0235 23.7266 43.25 23.6211 43.4141 23.4453C43.5782 23.2656 43.668 23.0313 43.6563 22.7891C43.6485 22.2852 43.2461 21.8828 42.7422 21.875C42.6524 21.875 42.5625 21.8945 42.4766 21.9258V23.6484C42.5665 23.6836 42.6641 23.7031 42.7618 23.707L42.7813 23.7383ZM42.8125 21.3633C43.0547 21.3516 43.2774 21.2461 43.4415 21.0664C43.6016 20.8867 43.6875 20.6523 43.6758 20.4141C43.6485 19.9258 43.25 19.543 42.7618 19.5391C42.6641 19.5391 42.5625 19.5547 42.4688 19.5859V21.3125C42.5821 21.3359 42.7032 21.3438 42.8204 21.332L42.8125 21.3633ZM42.7696 16.625C43.2813 16.6172 43.6875 16.1992 43.6797 15.6875C43.6758 15.1836 43.2618 14.7812 42.7579 14.7891C42.6602 14.793 42.5665 14.8125 42.4766 14.8438V16.5625C42.5625 16.5938 42.6563 16.6133 42.75 16.6133L42.7696 16.625ZM42.7696 49.9141C43.2657 49.8945 43.6641 49.4883 43.6641 48.9883C43.6407 48.5039 43.2383 48.125 42.7579 48.125C42.6641 48.1328 42.5743 48.1484 42.4883 48.1797V49.832C42.5782 49.8672 42.6758 49.8867 42.7735 49.8867L42.7696 49.9141ZM42.7696 50.4609C42.6563 50.457 42.5469 50.4766 42.4454 50.5195C42.4219 51.0273 42.3711 51.5352 42.2891 52.0391C42.4219 52.1328 42.5782 52.1875 42.7422 52.1953H42.7813C43.2305 52.1562 43.5782 51.7812 43.5782 51.3281C43.5782 50.875 43.2305 50.5 42.7813 50.4609H42.7696ZM45.1172 43.418C44.6719 43.4141 44.3047 43.7617 44.2813 44.207C44.2852 44.6758 44.6641 45.0547 45.1329 45.0625C45.3516 45.0547 45.5586 44.957 45.711 44.7969C45.8594 44.6367 45.9414 44.4219 45.9297 44.1992C45.9258 43.7578 45.5625 43.4062 45.1172 43.4141V43.418ZM45.1797 14.1758H45.2188C45.6641 14.1211 45.9844 13.7188 45.9297 13.2734C45.9258 12.9258 45.7071 12.6211 45.3829 12.5H44.9063C44.5508 12.6133 44.3125 12.9453 44.3125 13.3203V13.3555C44.3516 13.8125 44.7539 14.1523 45.211 14.1133L45.1797 14.1758ZM45.1368 16.5312C45.3516 16.5234 45.5547 16.4297 45.7032 16.2695C45.8477 16.1133 45.9258 15.9023 45.918 15.6875C45.9102 15.2383 45.5469 14.8789 45.1016 14.8672C44.6485 14.8828 44.2852 15.2383 44.2618 15.6875C44.2774 16.1484 44.6641 16.5156 45.125 16.5L45.1368 16.5312ZM45.1368 18.8867H45.1993C45.4141 18.8789 45.6172 18.7852 45.7657 18.6289C45.9102 18.4688 45.9883 18.2578 45.9805 18.043C45.9883 17.5938 45.6368 17.2187 45.1875 17.1992C44.7188 17.1992 44.336 17.582 44.336 18.0508C44.3516 18.5 44.7188 18.8555 45.168 18.8555L45.1368 18.8867ZM45.1368 21.3125H45.1758C45.3946 21.3008 45.5977 21.2031 45.7461 21.0391C45.8907 20.8789 45.9688 20.6641 45.9571 20.4453C45.9532 20 45.5938 19.6484 45.1485 19.6484C44.6993 19.6406 44.3243 19.9922 44.3047 20.4453C44.3282 20.9023 44.711 21.2578 45.168 21.25L45.1368 21.3125ZM45.1368 23.6641H45.2383C45.6915 23.6211 46.0313 23.2188 45.9922 22.7617C45.9766 22.3125 45.6016 21.9609 45.1485 21.9766C44.7266 22.0039 44.3907 22.3477 44.375 22.7734C44.3907 23.2227 44.75 23.582 45.1993 23.6016L45.1368 23.6641ZM45.1368 26.0547H45.1875C45.6329 26.0273 45.9688 25.6445 45.9454 25.1992C45.9415 24.7617 45.5977 24.3984 45.1563 24.375C44.6875 24.3867 44.3165 24.7734 44.3243 25.2422C44.3477 25.6914 44.7266 26.0391 45.1758 26.0234L45.1368 26.0547ZM45.1368 28.4141H45.1875C45.4141 28.4063 45.6329 28.3008 45.7813 28.1289C45.9297 27.957 45.9961 27.7266 45.9688 27.5C45.9688 27.0508 45.6055 26.6836 45.1563 26.6758C44.6875 26.6836 44.3125 27.0664 44.3204 27.5391C44.3399 27.9883 44.7188 28.3398 45.168 28.3242L45.1368 28.4141ZM45.0743 29.1797C44.6485 29.2188 44.3204 29.5742 44.3204 30C44.3438 30.4492 44.7149 30.8008 45.1641 30.8047C45.6133 30.793 45.9688 30.4258 45.9688 29.9766V29.9141C45.9375 29.4648 45.5547 29.125 45.1055 29.1484L45.0743 29.1797ZM45.9375 32.3047C45.9297 32.0898 45.836 31.8867 45.6758 31.7422C45.5196 31.5938 45.3086 31.5156 45.0938 31.5234C44.6485 31.5391 44.2891 31.9023 44.2891 32.3516C44.3008 32.8008 44.6641 33.1602 45.1133 33.1758H45.1993C45.6563 33.1289 45.9883 32.7227 45.9454 32.2695L45.9375 32.3047ZM45.1172 35.5234C45.3399 35.5156 45.5469 35.418 45.6954 35.2539C45.8438 35.0938 45.9219 34.875 45.9141 34.6562C45.918 34.2109 45.5625 33.8438 45.1172 33.8359H45.125C44.6719 33.8438 44.3125 34.2148 44.3204 34.668C44.3399 35.1172 44.6993 35.4766 45.1485 35.4883L45.1172 35.5234ZM44.3125 37.0859V37.1445C44.3204 37.3633 44.418 37.5703 44.5821 37.7227C44.7461 37.8711 44.961 37.9492 45.1797 37.9375C45.3985 37.9297 45.6016 37.8359 45.7461 37.6758C45.8946 37.5195 45.9727 37.3086 45.961 37.0938C45.9493 36.6445 45.5821 36.2852 45.1329 36.2812C44.711 36.3008 44.3672 36.6211 44.3204 37.0391L44.3125 37.0859ZM45.1485 38.6133C44.7071 38.6211 44.3399 38.9648 44.3047 39.4062C44.3243 39.8672 44.7071 40.2266 45.168 40.2109C45.3868 40.2109 45.5938 40.1211 45.7461 39.9648C45.8985 39.8047 45.9766 39.5938 45.9688 39.375C45.9688 38.9258 45.6055 38.5586 45.1563 38.5508L45.1485 38.6133ZM45.1485 41.0312C44.7227 41.043 44.375 41.375 44.3438 41.8008C44.3555 42.2695 44.7383 42.6406 45.2071 42.6367C45.6563 42.6133 46.0039 42.2383 45.9922 41.7891C45.9883 41.3398 45.6172 40.9805 45.168 40.9883L45.1485 41.0312ZM44.3672 46.6562C44.3907 46.875 44.5 47.0742 44.6719 47.2109C44.8438 47.3477 45.0625 47.4102 45.2813 47.3867C45.6133 47.3516 45.8907 47.1211 45.9883 46.8008C46.0821 46.4805 45.9727 46.1328 45.7149 45.9258C45.4532 45.7148 45.0938 45.6836 44.8008 45.8438C44.5079 46.0039 44.3399 46.3242 44.375 46.6562H44.3672ZM45.1446 48.1562C44.7266 48.1797 44.3946 48.5195 44.375 48.9375C44.3711 49.2734 44.5743 49.5742 44.8868 49.7031C45.1993 49.8281 45.5547 49.75 45.7852 49.5078C46.0196 49.2656 46.0782 48.9062 45.9375 48.6016C45.7969 48.2969 45.4844 48.1055 45.1485 48.125L45.1446 48.1562ZM42.8204 52.8672C42.4883 52.8633 42.1836 53.0586 42.0547 53.3672C41.9219 53.6719 41.9883 54.0234 42.2227 54.2617C42.4571 54.5 42.8086 54.5703 43.1172 54.4453C43.4258 54.3203 43.625 54.0195 43.625 53.6875C43.625 53.2344 43.2579 52.8672 42.8047 52.8672H42.8204ZM40.461 56.9062H40.5196C40.961 56.8633 41.2852 56.4727 41.25 56.0312C41.2422 55.8984 41.2032 55.7695 41.1329 55.6562C40.9454 56.0664 40.7344 56.4648 40.5079 56.8516L40.461 56.9062ZM45.1133 50.5625C44.7149 50.5703 44.3907 50.8828 44.375 51.2812C44.3829 51.4883 44.4766 51.6836 44.629 51.8242C44.7852 51.9609 44.9883 52.0352 45.1954 52.0234C45.6172 52.0117 45.9571 51.6719 45.9766 51.25C45.9688 51.043 45.875 50.8477 45.7227 50.707C45.5704 50.5664 45.3711 50.4922 45.1641 50.5L45.1133 50.5625ZM42.8125 55.375C42.4375 55.3789 42.129 55.6758 42.1055 56.0508C42.125 56.4375 42.4297 56.75 42.8204 56.7734C43.2227 56.7734 43.5469 56.4414 43.543 56.0391C43.543 55.6562 43.2344 55.3438 42.8516 55.3438L42.8125 55.375ZM45.1368 53.0312C44.879 53.0195 44.6368 53.1562 44.5118 53.3867C44.3829 53.6133 44.3985 53.8906 44.543 54.1055C44.6875 54.3203 44.9415 54.4336 45.1993 54.3984C45.5899 54.3906 45.8985 54.0703 45.8946 53.6797C45.8868 53.2969 45.5704 52.9922 45.1875 53L45.1368 53.0312ZM47.5704 14.0195C47.9258 13.9844 48.1954 13.6875 48.1954 13.3281C48.1954 12.9688 47.9258 12.6719 47.5704 12.6367C47.2071 12.6484 46.9141 12.9336 46.8985 13.2969C46.8789 13.6562 47.1407 13.9727 47.5 14.0195H47.5704ZM47.5704 14.9922C47.1954 14.9883 46.8868 15.2812 46.875 15.6562C46.875 16.0391 47.1875 16.3516 47.5704 16.3516C47.9493 16.3516 48.2579 16.043 48.2579 15.6641C48.2579 15.2812 47.9493 14.9766 47.5704 14.9766V14.9922ZM47.5118 37.7812C47.8946 37.7773 48.2032 37.4648 48.1993 37.082C48.1954 36.7109 47.8985 36.4141 47.5313 36.4062H47.4922C47.1368 36.4375 46.8672 36.7422 46.875 37.1016C46.8829 37.4531 47.1485 37.7422 47.5 37.7812H47.5118ZM47.5508 42.5312C47.7305 42.5391 47.9063 42.4766 48.0391 42.3516C48.1719 42.2266 48.2461 42.0547 48.25 41.875C48.2383 41.4961 47.9219 41.1953 47.543 41.207C47.1797 41.2227 46.8907 41.5117 46.875 41.875C46.8711 42.25 47.1719 42.5586 47.5508 42.5625V42.5312ZM47.5508 43.5195C47.1758 43.5195 46.875 43.8203 46.875 44.1953C46.875 44.5664 47.1758 44.8672 47.5508 44.8672C47.9141 44.8828 48.2188 44.6055 48.2422 44.2422V44.2109C48.2461 44.0312 48.1758 43.8516 48.0469 43.7227C47.9219 43.5938 47.7461 43.5195 47.5625 43.5195H47.5508ZM47.5938 45.9375H47.543C47.1836 45.9492 46.8907 46.2383 46.875 46.6016C46.8633 46.9805 47.1641 47.2969 47.543 47.3047C47.9219 47.3164 48.2383 47.0156 48.25 46.6367C48.2657 46.2734 47.9883 45.9648 47.625 45.9375H47.5938ZM47.5313 35.3672C47.8985 35.3906 48.2188 35.1133 48.2422 34.7422C48.2774 34.3672 47.9961 34.0352 47.6211 34C47.2422 33.9648 46.9102 34.2422 46.875 34.6211C46.8399 35 47.1172 35.332 47.4922 35.3672H47.5313ZM47.5821 18.75C47.9336 18.7148 48.2032 18.418 48.2071 18.0625C48.2149 17.7031 47.9375 17.4063 47.5821 17.3828H47.5C47.125 17.3828 46.8204 17.6914 46.8243 18.0703C46.8282 18.2578 46.9063 18.4375 47.0469 18.5664C47.1836 18.6953 47.3672 18.7617 47.5547 18.75H47.5821ZM47.5821 33.0391C47.9532 33.043 48.2618 32.7461 48.2696 32.375C48.2852 31.9961 47.9883 31.6758 47.6094 31.6602C47.2305 31.6445 46.9102 31.9375 46.8946 32.3203C46.8946 32.6992 47.2032 33.0078 47.5821 33.0078V33.0391ZM47.5821 29.2891H47.543C47.1641 29.3008 46.8633 29.6211 46.875 30C46.875 30.3789 47.1836 30.6875 47.5625 30.6875C47.9415 30.6875 48.25 30.3789 48.25 30C48.254 29.9727 48.254 29.9453 48.25 29.918C48.25 29.5391 47.9415 29.2305 47.5625 29.2305L47.5821 29.2891ZM40.4258 57.8359H40.3633C40.1836 57.8516 40.0157 57.9336 39.8985 58.0703C39.7813 58.2109 39.7227 58.3867 39.7383 58.5703C39.7657 58.9297 40.0743 59.2031 40.4375 59.1953C40.8086 59.1562 41.0821 58.832 41.0625 58.4609C41.0352 58.125 40.7618 57.8594 40.4258 57.8359ZM47.5821 21.125C47.9493 21.1172 48.2461 20.8125 48.2383 20.4453V20.4141C48.2305 20.2266 48.1485 20.0508 48.0118 19.9258C47.8711 19.8008 47.6875 19.7344 47.5 19.75C47.1485 19.7891 46.879 20.082 46.875 20.4375V20.4766C46.9063 20.8398 47.2188 21.1172 47.586 21.1016L47.5821 21.125ZM47.5821 38.7812C47.2227 38.7773 46.9219 39.0508 46.8946 39.4062C46.8868 39.7852 47.1875 40.1016 47.5704 40.1133C47.9297 40.1211 48.2344 39.8477 48.2618 39.4883V39.4297C48.2657 39.25 48.1954 39.0703 48.0665 38.9453C47.9336 38.8164 47.7579 38.7461 47.5743 38.75L47.5821 38.7812ZM47.5821 23.4805C47.9532 23.4805 48.2579 23.1797 48.2579 22.8047V22.7734C48.2461 22.3945 47.9297 22.0977 47.5508 22.1055C47.1719 22.1172 46.8711 22.4336 46.8829 22.8125C46.8907 23.1914 47.2071 23.4922 47.586 23.4805H47.5821ZM47.5821 28.2578C47.9454 28.2695 48.2579 27.9961 48.2891 27.6328V27.5703C48.2969 27.3789 48.2227 27.1953 48.0899 27.0625C47.9532 26.9297 47.7657 26.8594 47.5743 26.875C47.2188 26.9102 46.9454 27.207 46.9454 27.5664C46.9454 27.9219 47.2188 28.2227 47.5743 28.2578H47.5821ZM47.5821 25.8984H47.625C48.004 25.8906 48.3047 25.5742 48.293 25.1953C48.293 24.8242 47.9961 24.5234 47.625 24.5234H47.586C47.3985 24.5156 47.2149 24.5859 47.0821 24.7188C46.9454 24.8477 46.8711 25.0312 46.875 25.2188C46.8829 25.5977 47.1954 25.9023 47.5743 25.8984H47.5821ZM47.5821 48.3047C47.2266 48.3359 46.9532 48.6367 46.9571 48.9922C47.0079 49.3711 47.3399 49.6406 47.7188 49.6172C48.0821 49.5938 48.3594 49.2812 48.3438 48.918C48.3477 48.8945 48.3477 48.8711 48.3438 48.8516C48.3086 48.5078 48.004 48.2617 47.6641 48.293L47.5821 48.3047ZM47.5821 50.6953C47.2618 50.7617 47.0508 51.0664 47.0938 51.3867C47.1368 51.7109 47.4219 51.9453 47.7461 51.9297C48.0743 51.9102 48.3321 51.6445 48.336 51.3203V51.25C48.3243 51.082 48.2422 50.9297 48.1172 50.8242C47.9883 50.7188 47.8204 50.6641 47.6563 50.6797L47.5821 50.6953ZM45.2071 55.4883C44.9141 55.5273 44.6915 55.7695 44.668 56.0625V56.1016C44.6797 56.4453 44.9688 56.7148 45.3125 56.707C45.6563 56.6953 45.9297 56.4062 45.918 56.0625V56.0234C45.8907 55.707 45.6133 55.4648 45.293 55.4883H45.2071ZM42.8829 57.8945C42.629 57.832 42.3633 57.9297 42.2149 58.1445C42.0665 58.3594 42.0665 58.6406 42.2149 58.8555C42.3633 59.0703 42.629 59.168 42.8829 59.1055H42.918C43.2422 59.1055 43.5079 58.8438 43.5079 58.5195C43.5079 58.1875 43.25 57.9141 42.918 57.8945H42.8829ZM46.9766 53.75C46.9805 54.0625 47.2383 54.3086 47.5508 54.3008C47.6993 54.3086 47.8477 54.2539 47.9571 54.1484C48.0665 54.0469 48.129 53.9023 48.125 53.75C48.1368 53.4414 47.8985 53.1797 47.586 53.1641C47.2618 53.168 46.9961 53.4258 46.9766 53.75ZM39.9063 60.8438C39.8985 60.8711 39.8985 60.8984 39.9063 60.9258C40.0118 61.0742 40.1329 61.2266 40.2422 61.375C40.3047 61.4023 40.3711 61.418 40.4375 61.418C40.7383 61.3906 40.9766 61.1484 41 60.8438C40.9922 60.6953 40.9297 60.5547 40.8165 60.4531C40.7071 60.3516 40.5625 60.3008 40.4141 60.3047C40.129 60.3242 39.9063 60.5586 39.9063 60.8438ZM50.4454 25.2188C50.4493 25.0781 50.3985 24.9414 50.3008 24.8359C50.2071 24.7344 50.0704 24.6719 49.9297 24.668C49.625 24.668 49.375 24.918 49.375 25.2266C49.3985 25.5156 49.6329 25.7461 49.9258 25.7578C50.211 25.7383 50.4375 25.5078 50.4454 25.2188ZM49.875 38.9141C49.5821 38.9336 49.3555 39.1758 49.3555 39.4688C49.3829 39.7578 49.6172 39.9844 49.9063 40C50.0586 39.9922 50.2032 39.918 50.3008 39.8008C50.3985 39.6797 50.4454 39.5273 50.4258 39.375C50.3868 39.1016 50.1485 38.9023 49.875 38.9141ZM49.875 22.25C49.5821 22.2617 49.3438 22.5 49.3321 22.793C49.336 22.9414 49.3985 23.0859 49.5079 23.1875C49.6172 23.2891 49.7618 23.3437 49.9141 23.3359C50.0547 23.3281 50.1836 23.2656 50.2774 23.1602C50.375 23.0547 50.4219 22.9141 50.4141 22.7734C50.4024 22.4805 50.1602 22.25 49.8672 22.25H49.875ZM49.875 28.1055C50.1758 28.1016 50.4141 27.8555 50.4141 27.5547C50.418 27.418 50.3711 27.2812 50.2774 27.1758C50.1836 27.0742 50.0508 27.0117 49.9141 27.0078C49.6094 27 49.3555 27.2383 49.3516 27.543C49.3438 27.8438 49.5743 28.0977 49.875 28.125V28.1055ZM49.375 41.875C49.3907 42.168 49.6329 42.3984 49.9258 42.3984C50.2188 42.4023 50.461 42.168 50.461 41.875C50.4688 41.582 50.2422 41.332 49.9493 41.3125C49.6368 41.3164 49.3868 41.5625 49.375 41.875ZM49.918 36.582C49.6485 36.6055 49.4336 36.8164 49.4063 37.0859C49.418 37.3984 49.6758 37.6445 49.9883 37.6445C50.2774 37.6172 50.5 37.3711 50.4922 37.082C50.4883 36.7891 50.2422 36.5547 49.9493 36.5625L49.918 36.582ZM49.918 44.7812C50.0625 44.7734 50.1954 44.707 50.2891 44.5977C50.3829 44.4883 50.4297 44.3477 50.418 44.207C50.4141 43.9141 50.1758 43.6758 49.8829 43.668C49.5899 43.6797 49.3516 43.9102 49.3321 44.1992C49.336 44.3477 49.3985 44.4883 49.5079 44.5898C49.6133 44.6875 49.7579 44.7422 49.9063 44.7383L49.918 44.7812ZM49.8829 30.543C50.1797 30.5391 50.4141 30.2969 50.4141 30C50.4258 29.707 50.2071 29.4531 49.9141 29.4297C49.7618 29.4258 49.6133 29.4805 49.504 29.5859C49.3946 29.6875 49.3282 29.832 49.3243 29.9805C49.336 30.2734 49.5704 30.5078 49.8633 30.5195L49.8829 30.543ZM49.8829 13.9062C50.1719 13.875 50.3946 13.625 50.3829 13.332C50.3829 13.1914 50.3321 13.0547 50.2344 12.9531C50.1368 12.8516 50.004 12.7969 49.8633 12.793H49.8243C49.6797 12.7969 49.543 12.8594 49.4454 12.9648C49.3477 13.0703 49.2969 13.2109 49.3008 13.3555C49.3243 13.6484 49.5625 13.875 49.8555 13.8828L49.8829 13.9062ZM49.8829 19.9258C49.5782 19.8945 49.3008 20.1094 49.2579 20.4141C49.2422 20.7031 49.4571 20.957 49.75 20.9883H49.8047C50.1016 20.9883 50.336 20.75 50.336 20.457C50.3399 20.1641 50.1133 19.9219 49.8243 19.8984L49.8829 19.9258ZM49.8321 32.8945C50.1211 32.8906 50.3516 32.6562 50.3555 32.3672C50.3633 32.0625 50.1211 31.8086 49.8125 31.8008C49.5196 31.8125 49.2852 32.0469 49.2696 32.3359C49.2696 32.6328 49.5 32.875 49.793 32.8867L49.8321 32.8945ZM49.875 34.1445C49.5586 34.1172 49.2813 34.3516 49.25 34.668C49.2696 34.9609 49.5118 35.1875 49.8047 35.1875C50.1016 35.1836 50.336 34.9453 50.3321 34.6484C50.3282 34.3594 50.1016 34.1211 49.8125 34.1016L49.875 34.1445ZM49.875 15.1484C49.5821 15.1445 49.336 15.375 49.3204 15.668C49.336 15.9375 49.5391 16.1563 49.8047 16.1953C50.0977 16.1836 50.336 15.9492 50.3438 15.6562C50.3477 15.5156 50.2969 15.3789 50.2032 15.2734C50.1055 15.1719 49.9727 15.1094 49.8321 15.1055L49.875 15.1484ZM49.875 46.0938H49.8438C49.6915 46.0742 49.5391 46.1172 49.4219 46.2148C49.3008 46.3125 49.2305 46.4531 49.2188 46.6055C49.2383 46.8945 49.4727 47.125 49.7618 47.1445C50.0547 47.1367 50.293 46.9062 50.3047 46.6133C50.3125 46.4727 50.2618 46.332 50.168 46.2305C50.0743 46.125 49.9415 46.0625 49.8008 46.0547L49.875 46.0938ZM49.8321 18.5938C50.1329 18.5508 50.3477 18.2734 50.3047 17.9688C50.293 17.6758 50.0469 17.4492 49.7579 17.457C49.4649 17.4648 49.2266 17.6992 49.2188 17.9922C49.2305 18.2891 49.461 18.5234 49.7579 18.543L49.8321 18.5938ZM49.8321 48.457C49.6915 48.4492 49.5547 48.4961 49.4493 48.5898C49.3438 48.6836 49.2813 48.8164 49.2735 48.957C49.2852 49.2461 49.5235 49.4727 49.8125 49.4688C49.8516 49.4766 49.8868 49.4766 49.9258 49.4688C50.1172 49.4531 50.2852 49.332 50.3633 49.1602C50.4454 48.9844 50.4219 48.7773 50.3086 48.625C50.1914 48.4688 50.004 48.3867 49.8125 48.4141L49.8321 48.457ZM44.625 58.4883V58.5234C44.6329 58.6602 44.6915 58.7852 44.7891 58.875C44.8907 58.9648 45.0235 59.0117 45.1563 59.0078C45.2852 59.0039 45.4063 58.9531 45.4961 58.8594C45.5821 58.7656 45.629 58.6406 45.625 58.5117C45.6211 58.2266 45.3868 57.9961 45.1016 58C44.8477 58.0273 44.6485 58.2344 44.625 58.4883ZM42.2891 60.8438C42.2891 61.1172 42.5079 61.3398 42.7813 61.3438H42.8204C43.0782 61.3359 43.2813 61.1211 43.2735 60.8633C43.2813 60.5898 43.0665 60.3633 42.793 60.3555C42.5235 60.3633 42.3047 60.5742 42.2891 60.8438ZM47.4297 55.625C47.3047 55.6445 47.1914 55.7188 47.1172 55.8203C47.0469 55.9258 47.0157 56.0547 47.0391 56.1797C47.0743 56.4492 47.3125 56.6367 47.5821 56.6133C47.8477 56.5742 48.043 56.3398 48.0313 56.0703C48 55.8008 47.7657 55.6055 47.5 55.625H47.4297ZM49.9297 50.8359H49.875C49.7422 50.8438 49.6133 50.9023 49.5235 51C49.4297 51.0977 49.3829 51.2266 49.3868 51.3633C49.3946 51.4883 49.4493 51.6055 49.543 51.6914C49.6368 51.7773 49.7618 51.8203 49.8868 51.8125C50.1602 51.8164 50.3829 51.5977 50.3868 51.3242C50.375 51.0586 50.1719 50.8398 49.9063 50.8125L49.9297 50.8359ZM49.9297 53.3008C49.6797 53.3125 49.4766 53.5117 49.461 53.7617C49.4688 53.8828 49.5196 53.9961 49.6094 54.0781C49.6993 54.1602 49.8165 54.2031 49.9375 54.1992C50.168 54.1953 50.3516 54.0078 50.3516 53.7734C50.3594 53.5234 50.168 53.3125 49.918 53.3008H49.9297ZM47.5704 58.125C47.3555 58.1211 47.1758 58.2812 47.1563 58.4922C47.1602 58.5078 47.1602 58.5195 47.1563 58.5312C47.1524 58.6289 47.1875 58.7227 47.254 58.7969C47.3204 58.8672 47.4141 58.9102 47.5118 58.9141H47.5625C47.7813 58.9141 47.9571 58.7344 47.9571 58.5195C47.9454 58.3047 47.7735 58.1367 47.5625 58.125H47.5704ZM45.1485 60.4766C45.0391 60.4805 44.9336 60.5273 44.8594 60.6094C44.7852 60.6914 44.7461 60.8008 44.75 60.9141C44.7657 61.125 44.9493 61.2812 45.1641 61.2695H45.1954C45.293 61.2617 45.3829 61.2188 45.4493 61.1445C45.5118 61.0703 45.543 60.9727 45.5391 60.875C45.5352 60.6641 45.3672 60.4883 45.1563 60.4766H45.1485ZM52.3516 22.4453C52.1563 22.375 51.9375 22.5859 51.9297 22.7891C51.9258 22.9883 52.1758 23.207 52.3243 23.1641C52.4766 23.1172 52.5938 22.9687 52.8047 22.8047C52.6016 22.6367 52.4883 22.4883 52.3438 22.4453H52.3516ZM51.9493 27.582C52.043 27.7539 52.1641 27.9141 52.3008 28.0547C52.4688 27.8516 52.5938 27.793 52.6641 27.5938C52.7305 27.3945 52.5118 27.1797 52.3125 27.1797C52.1133 27.1797 51.8868 27.3945 51.9454 27.582H51.9493ZM52.3946 42.2383C52.461 42.1562 52.6172 42.043 52.6641 41.8984C52.6641 41.8672 52.6641 41.832 52.6641 41.8008C52.6485 41.6172 52.4961 41.4805 52.3125 41.4883C52.1172 41.4766 51.9493 41.6172 51.9258 41.8125C51.918 41.9297 51.9649 42.0469 52.0508 42.1289C52.1368 42.2109 52.2579 42.25 52.375 42.2383H52.3946ZM52.293 39.0703C52.0938 39.0781 51.9375 39.2383 51.9297 39.4375C51.9297 39.6445 52.1172 39.8047 52.4375 39.8047C52.5352 39.6992 52.6133 39.5781 52.668 39.4453V39.375C52.6602 39.2812 52.6172 39.1953 52.543 39.1367C52.4727 39.0781 52.379 39.0469 52.2891 39.0547L52.293 39.0703ZM52.293 16.043H52.3555C52.4414 16.0234 52.5157 15.9727 52.5625 15.8984C52.6055 15.8242 52.6211 15.7344 52.6016 15.6484C52.5313 15.5195 52.4415 15.3984 52.3321 15.3008C52.0313 15.3008 51.836 15.5234 51.875 15.7188C51.8829 15.8125 51.9258 15.9023 51.9961 15.9648C52.0664 16.0273 52.1602 16.0586 52.2579 16.0508L52.293 16.043ZM51.9454 32.375C51.9688 32.5547 52.1172 32.6914 52.3008 32.6992C52.5079 32.6992 52.668 32.4883 52.6329 32.1758C52.5196 32.082 52.3946 32.0117 52.2579 31.9688H52.1797C52.0899 31.9844 52.0118 32.0352 51.9571 32.1094C51.9063 32.1875 51.8868 32.2773 51.9063 32.3672L51.9454 32.375ZM52.293 24.832C52.1914 24.8281 52.0938 24.8633 52.0196 24.9336C51.9454 25.0039 51.9024 25.0977 51.8985 25.1992C51.8985 25.4062 52.086 25.5703 52.4063 25.5703C52.504 25.4609 52.5821 25.3398 52.6368 25.207V25.1484C52.6289 25.0586 52.586 24.9727 52.5118 24.9102C52.4414 24.8516 52.3477 24.8242 52.2579 24.832H52.293ZM51.9454 18.0078V18.043C51.9415 18.1328 51.9727 18.2227 52.0352 18.2852C52.0977 18.3516 52.1836 18.3867 52.2735 18.3867C52.4102 18.3398 52.5352 18.2617 52.6368 18.1641C52.6368 17.8516 52.4805 17.6562 52.2735 17.6562C52.0782 17.6602 51.918 17.8125 51.9063 18.0078H51.9454ZM51.9454 13.3203C51.9454 13.5195 52.1329 13.6992 52.4141 13.6875C52.5118 13.5859 52.5938 13.4648 52.6485 13.332C52.6993 13.1328 52.4766 12.9492 52.2696 12.9492C52.0704 12.957 51.9141 13.1211 51.9141 13.3203H51.9454ZM52.3438 43.8516C52.3125 43.8438 52.2774 43.8438 52.2422 43.8516C52.0547 43.8594 51.9063 44.0234 51.9141 44.2109C51.9102 44.4102 52.0625 44.5781 52.2618 44.5859C52.4688 44.5859 52.6641 44.4297 52.6641 44.1133C52.5625 44.0078 52.4454 43.918 52.3125 43.8555L52.3438 43.8516ZM52.3438 37.457H52.4141C52.5 37.4375 52.5743 37.3867 52.6211 37.3125C52.6719 37.2383 52.6875 37.1484 52.668 37.0625C52.625 36.9141 52.4688 36.8008 52.3985 36.7109C52.1602 36.707 51.9571 36.8906 51.9454 37.1328C51.9493 37.2266 51.9922 37.3125 52.0665 37.375C52.1368 37.4375 52.2305 37.4688 52.3243 37.4609L52.3438 37.457ZM52.3438 30.3516C52.5508 30.3281 52.6993 30.1445 52.6797 29.9375C52.6602 29.7539 52.4922 29.6172 52.3047 29.6367C52.1133 29.6367 51.9571 29.793 51.9571 29.9883C51.9532 30.2031 52.125 30.3789 52.336 30.3828L52.3438 30.3516ZM52.6993 20.3516C52.5977 20.25 52.4766 20.168 52.3438 20.1133H52.2735C52.0821 20.1289 51.9415 20.2969 51.9571 20.4883C51.9727 20.6836 52.1289 20.8359 52.3243 20.8438C52.5 20.8359 52.6954 20.6562 52.6797 20.3242L52.6993 20.3516ZM52.3555 35.0547C52.543 35.0195 52.668 34.8438 52.6368 34.6562C52.586 34.5117 52.4297 34.4062 52.2579 34.2109C52.1016 34.4297 51.9688 34.5195 51.918 34.707C51.8672 34.8945 52.1055 35.082 52.3047 35.082L52.3555 35.0547ZM51.9883 46.6875C52.0235 46.832 52.1797 46.9492 52.3555 47.1641C52.4883 47.0117 52.6016 46.8438 52.6875 46.6641C52.7305 46.457 52.5079 46.3047 52.293 46.3047C52.2032 46.3086 52.1172 46.3477 52.0547 46.4141C51.9922 46.4805 51.961 46.5703 51.9688 46.6641L51.9883 46.6875ZM52.4141 48.6367C52.1016 48.6797 51.9805 48.8047 51.9922 49.0391V49.1016C52.0235 49.2734 52.1836 49.3906 52.3555 49.3672C52.543 49.3516 52.6875 49.1875 52.6758 49C52.6758 48.8633 52.4805 48.75 52.4141 48.6562V48.6367ZM49.5704 56.0703C49.5118 56.2812 49.6641 56.418 49.8829 56.4297C49.9727 56.4414 50.0625 56.4102 50.129 56.3516C50.1954 56.2891 50.2344 56.2031 50.2383 56.1133C50.2383 55.9688 50.0821 55.832 49.9375 55.6016C49.7618 55.8125 49.625 55.8555 49.5704 56.0703ZM52.168 51.0703C52.043 51.1172 51.9766 51.2578 52.0196 51.3867C52.0547 51.5 52.1875 51.6641 52.3125 51.6484C52.4375 51.6367 52.5508 51.4883 52.7618 51.3359C52.543 51.1992 52.4258 51.0547 52.2891 51.0547C52.25 51.043 52.2071 51.0391 52.168 51.043V51.0703ZM42.5 63.3047C42.5079 63.3867 42.5508 63.4609 42.6172 63.5117C42.6797 63.5586 42.7618 63.582 42.8438 63.5703C42.9766 63.5312 43.0743 63.3945 43.2618 63.2422C43.129 63.125 42.9766 63.0273 42.8125 62.9492C42.6133 62.9062 42.4454 63.125 42.5 63.3047ZM52.1055 53.75C52.1563 53.8516 52.25 53.9258 52.3633 53.9492C52.4493 53.9492 52.543 53.8633 52.6368 53.8125L52.5743 53.668C52.4766 53.6172 52.375 53.5234 52.2735 53.5234C52.1758 53.5234 52.086 53.6992 52.1055 53.75ZM47.5625 60.543C47.4571 60.6875 47.3438 60.793 47.336 60.8633C47.3321 60.9297 47.4571 61.0117 47.5235 61.0859C47.6055 61.0117 47.7579 60.9453 47.7579 60.8516C47.7579 60.7578 47.6641 60.6953 47.5625 60.543ZM49.9063 58.3203C49.8243 58.3203 49.711 58.4766 49.7188 58.5508C49.7266 58.625 49.836 58.6953 49.9454 58.8047C50.004 58.707 50.0508 58.5977 50.086 58.4883C50.086 58.4375 49.9454 58.3516 49.9063 58.3516V58.3203ZM45 63.2734C45 63.3047 45.0625 63.375 45.168 63.543C45.2305 63.4531 45.2774 63.3555 45.3125 63.25C45.3125 63.1953 45.211 63.1445 45.1563 63.0859C45.1016 63.1484 45.0469 63.2109 45 63.2734Z" fill="#990000"/>
</g>
</g>
</svg>
