<svg width="24" height="24" viewBox="0 0 24 24" fill="none" xmlns="http://www.w3.org/2000/svg">
<g id="Social/dislike">
<path id="Vector" d="M5.40126 2.5H18.1975C19.6375 2.5 20.8225 3.6175 20.1813 5.18125C21.65 6.875 20.875 8.15625 20.875 8.15625C20.875 8.15625 22.265 9.66375 20.915 11.13C21.265 12.1113 21.465 12.9787 20.1863 13.8462C18.9075 14.7137 15.8675 13.87 14.7575 13.7338C13.27 14.2088 17.7025 21.3762 12.985 21.5C12.965 21.4488 12.435 21.625 12.585 19.765C12.585 17.8237 8.92126 13.5013 7.72251 11.8188M8.5 2.5H5C4.33696 2.5 3.70107 2.76339 3.23223 3.23223C2.76339 3.70107 2.5 4.33696 2.5 5V10C2.5 10.663 2.76339 11.2989 3.23223 11.7678C3.70107 12.2366 4.33696 12.5 5 12.5H6C6.66304 12.5 7.29893 12.2366 7.76777 11.7678C8.23661 11.2989 8.5 10.663 8.5 10V2.5Z" stroke="#0D0D0D" stroke-linejoin="round"/>
</g>
</svg>
