<svg width="24" height="24" viewBox="0 0 24 24" fill="none" xmlns="http://www.w3.org/2000/svg">
<g id="Social/like">
<path id="Vector" d="M5.40125 21.5H18.1975C19.6375 21.5 20.8225 20.3825 20.1813 18.8188C21.65 17.125 20.875 15.8438 20.875 15.8438C20.875 15.8438 22.265 14.3362 20.915 12.87C21.265 11.8887 21.465 11.0213 20.1863 10.1538C18.9075 9.28625 15.8625 10.125 14.75 10.2662C13.265 9.79125 17.6975 2.625 12.98 2.5C12.96 2.55125 12.43 2.375 12.58 4.235C12.58 6.17625 8.91625 10.4987 7.7175 12.1812M8.5 21.5H5C4.33696 21.5 3.70107 21.2366 3.23223 20.7678C2.76339 20.2989 2.5 19.663 2.5 19V14C2.5 13.337 2.76339 12.7011 3.23223 12.2322C3.70107 11.7634 4.33696 11.5 5 11.5H6C6.66304 11.5 7.29893 11.7634 7.76777 12.2322C8.23661 12.7011 8.5 13.337 8.5 14V21.5Z" stroke="#0D0D0D" stroke-linejoin="round"/>
</g>
</svg>
