<svg width="120" height="120" viewBox="0 0 120 120" fill="none" xmlns="http://www.w3.org/2000/svg">
<g id="Social/like">
<g id="like">
<path id="Vector" d="M26.8662 106.943H90.516C97.6786 106.943 103.573 101.385 100.383 93.6065C107.689 85.1817 103.834 78.8086 103.834 78.8086C103.834 78.8086 110.748 71.3102 104.033 64.0169C105.774 59.1361 106.769 54.821 100.408 50.506C94.0476 46.191 78.9014 50.363 73.3678 51.0656C65.9812 48.7029 88.0289 13.0573 64.5636 12.4355C64.4641 12.6905 61.8279 11.8138 62.574 21.0656C62.574 30.7216 44.3502 52.2221 38.3875 60.591" fill="#E60000"/>
<path id="Vector_2" d="M42.2796 106.943H24.8703C21.5723 106.943 18.4093 105.633 16.0773 103.301C13.7452 100.969 12.4351 97.8059 12.4351 94.5079V69.6374C12.4351 66.3394 13.7452 63.1764 16.0773 60.8443C18.4093 58.5123 21.5723 57.2021 24.8703 57.2021H29.8444C33.1424 57.2021 36.3054 58.5123 38.6374 60.8443C40.9695 63.1764 42.2796 66.3394 42.2796 69.6374V106.943Z" fill="#E60000"/>
<path id="Vector_3" d="M38.4992 81.1025C38.5031 80.9346 38.5569 80.7716 38.6538 80.6343C38.7507 80.4971 38.8862 80.3918 39.0432 80.3319C39.2002 80.2721 39.3714 80.2603 39.5351 80.2981C39.6987 80.336 39.8475 80.4217 39.9622 80.5444C40.077 80.6671 40.1526 80.8212 40.1794 80.987C40.2062 81.1529 40.183 81.3229 40.1128 81.4755C40.0425 81.6282 39.9284 81.7564 39.785 81.8439C39.6416 81.9314 39.4754 81.9742 39.3075 81.9668C39.1973 81.9644 39.0887 81.94 38.988 81.895C38.8873 81.8501 38.7967 81.7854 38.7214 81.7049C38.6461 81.6244 38.5876 81.5296 38.5495 81.4261C38.5113 81.3227 38.4942 81.2127 38.4992 81.1025ZM39.3386 92.717C39.5629 92.717 39.778 92.628 39.9365 92.4694C40.0951 92.3108 40.1842 92.0957 40.1842 91.8714C40.1842 91.6472 40.0951 91.4321 39.9365 91.2735C39.778 91.1149 39.5629 91.0258 39.3386 91.0258C39.2288 91.0217 39.1192 91.0396 39.0164 91.0786C38.9137 91.1176 38.8198 91.1768 38.7403 91.2528C38.6609 91.3288 38.5975 91.4199 38.5539 91.5209C38.5104 91.6218 38.4876 91.7304 38.4868 91.8404C38.4808 91.955 38.4985 92.0696 38.5388 92.177C38.5792 92.2845 38.6413 92.3824 38.7213 92.4647C38.8012 92.547 38.8974 92.6119 39.0036 92.6553C39.1098 92.6988 39.2239 92.7198 39.3386 92.717ZM38.4992 75.687C38.4871 75.8544 38.5252 76.0217 38.6085 76.1675C38.6918 76.3133 38.8166 76.4309 38.967 76.5055C39.1174 76.5801 39.2866 76.6082 39.4531 76.5863C39.6195 76.5644 39.7757 76.4934 39.9017 76.3824C40.0276 76.2714 40.1177 76.1254 40.1604 75.963C40.2031 75.8007 40.1965 75.6293 40.1415 75.4706C40.0864 75.312 39.9854 75.1734 39.8513 75.0724C39.7172 74.9714 39.556 74.9126 39.3884 74.9036C39.2782 74.8951 39.1675 74.9088 39.0628 74.9439C38.958 74.9789 38.8613 75.0346 38.7785 75.1076C38.6956 75.1807 38.6282 75.2696 38.5802 75.3691C38.5323 75.4686 38.5047 75.5767 38.4992 75.687ZM39.3573 87.3388C39.5815 87.3388 39.7966 87.2497 39.9552 87.0911C40.1138 86.9326 40.2029 86.7175 40.2029 86.4932C40.2029 86.2689 40.1138 86.0539 39.9552 85.8953C39.7966 85.7367 39.5815 85.6476 39.3573 85.6476C39.2473 85.6476 39.1385 85.6694 39.037 85.7116C38.9355 85.7539 38.8434 85.8158 38.7659 85.8938C38.6885 85.9719 38.6272 86.0644 38.5857 86.1662C38.5442 86.268 38.5233 86.3771 38.5241 86.487C38.5199 86.5984 38.5384 86.7095 38.5785 86.8136C38.6186 86.9176 38.6795 87.0123 38.7575 87.0921C38.8355 87.1718 38.9289 87.2348 39.032 87.2772C39.1351 87.3196 39.2458 87.3406 39.3573 87.3388ZM39.32 71.2227C39.4882 71.2277 39.654 71.1823 39.7963 71.0925C39.9386 71.0026 40.0509 70.8724 40.1187 70.7183C40.1865 70.5643 40.2069 70.3936 40.1771 70.228C40.1473 70.0623 40.0688 69.9093 39.9516 69.7886C39.8344 69.6678 39.6838 69.5848 39.5192 69.5501C39.3545 69.5154 39.1832 69.5306 39.0272 69.5938C38.8713 69.657 38.7377 69.7653 38.6437 69.9049C38.5496 70.0444 38.4993 70.2089 38.4992 70.3771C38.4968 70.4868 38.5161 70.5958 38.5562 70.6979C38.5962 70.8 38.6562 70.8931 38.7326 70.9718C38.8089 71.0505 38.9002 71.1132 39.0011 71.1563C39.1019 71.1993 39.2103 71.2219 39.32 71.2227ZM40.1904 65.0051C40.1939 64.8388 40.1483 64.6751 40.0592 64.5345C39.9701 64.394 39.8415 64.2829 39.6895 64.2151C39.5375 64.1473 39.3689 64.1258 39.2048 64.1534C39.0407 64.181 38.8884 64.2564 38.767 64.3701C38.6455 64.4839 38.5603 64.631 38.5221 64.7929C38.4838 64.9548 38.4942 65.1245 38.5519 65.2806C38.6096 65.4366 38.7121 65.5722 38.8465 65.6703C38.9809 65.7684 39.1413 65.8247 39.3075 65.8321C39.4192 65.8397 39.5312 65.8245 39.6369 65.7875C39.7425 65.7506 39.8395 65.6925 39.9221 65.617C40.0046 65.5414 40.071 65.4499 40.1171 65.3479C40.1632 65.2459 40.1882 65.1357 40.1904 65.0238V65.0051ZM33.9728 85.7036C33.8194 85.7073 33.6706 85.7563 33.545 85.8445C33.4194 85.9326 33.3227 86.056 33.2671 86.199C33.2116 86.342 33.1996 86.4983 33.2326 86.6481C33.2657 86.7979 33.3424 86.9346 33.4531 87.041C33.5637 87.1473 33.7033 87.2185 33.8543 87.2455C34.0054 87.2726 34.161 87.2544 34.3017 87.1932C34.4424 87.1319 34.5618 87.0304 34.6449 86.9014C34.728 86.7725 34.7711 86.6218 34.7687 86.4683C34.7673 86.3649 34.7447 86.2628 34.7024 86.1684C34.66 86.074 34.5989 85.9892 34.5226 85.9194C34.4463 85.8495 34.3565 85.7959 34.2587 85.762C34.161 85.7281 34.0573 85.7146 33.9542 85.7222L33.9728 85.7036ZM33.9728 60.3854C34.1263 60.3842 34.2759 60.3376 34.4029 60.2514C34.5299 60.1653 34.6285 60.0435 34.6864 59.9014C34.7443 59.7593 34.7588 59.6032 34.7281 59.4528C34.6974 59.3025 34.6229 59.1646 34.514 59.0565C34.405 58.9484 34.2665 58.875 34.116 58.8455C33.9654 58.8161 33.8094 58.8318 33.6678 58.8908C33.5261 58.9498 33.4051 59.0494 33.32 59.1771C33.2348 59.3048 33.1894 59.4548 33.1894 59.6082C33.1851 59.7134 33.2025 59.8183 33.2405 59.9164C33.2786 60.0145 33.3365 60.1037 33.4106 60.1784C33.4847 60.2531 33.5735 60.3117 33.6713 60.3505C33.7691 60.3894 33.8739 60.4076 33.979 60.4041L33.9728 60.3854ZM33.9728 65.7575C34.1262 65.7599 34.2769 65.7168 34.4059 65.6337C34.5349 65.5506 34.6364 65.4312 34.6977 65.2905C34.7589 65.1498 34.7771 64.9942 34.75 64.8431C34.7229 64.6921 34.6517 64.5525 34.5454 64.4418C34.4391 64.3312 34.3024 64.2545 34.1526 64.2214C34.0028 64.1883 33.8465 64.2004 33.7035 64.2559C33.5605 64.3115 33.4371 64.4082 33.3489 64.5338C33.2608 64.6593 33.2118 64.8082 33.208 64.9616C33.2013 65.0651 33.2157 65.1689 33.2503 65.2667C33.2849 65.3644 33.339 65.4541 33.4094 65.5303C33.4798 65.6065 33.5649 65.6676 33.6596 65.7098C33.7544 65.7521 33.8567 65.7746 33.9604 65.7761L33.9728 65.7575ZM34.7625 91.8714C34.7635 91.7191 34.7197 91.5698 34.6366 91.4421C34.5535 91.3144 34.4347 91.214 34.295 91.1533C34.1552 91.0926 34.0007 91.0743 33.8507 91.1007C33.7006 91.127 33.5616 91.197 33.451 91.3017C33.3403 91.4064 33.2629 91.5414 33.2283 91.6897C33.1938 91.8381 33.2036 91.9934 33.2565 92.1362C33.3095 92.2791 33.4032 92.4032 33.5262 92.4932C33.6491 92.5832 33.7958 92.6351 33.9479 92.6424C34.0509 92.6475 34.1539 92.6316 34.2506 92.5958C34.3473 92.56 34.4358 92.5051 34.5108 92.4342C34.5857 92.3634 34.6455 92.2781 34.6866 92.1835C34.7277 92.0889 34.7493 91.987 34.75 91.8839L34.7625 91.8714ZM33.9728 81.886C34.1278 81.8884 34.28 81.8444 34.4098 81.7597C34.5397 81.6749 34.6412 81.5533 34.7013 81.4104C34.7615 81.2676 34.7775 81.11 34.7474 80.9579C34.7173 80.8058 34.6424 80.6662 34.5323 80.557C34.4223 80.4479 34.2821 80.3741 34.1298 80.3452C33.9774 80.3164 33.82 80.3337 33.6776 80.395C33.5352 80.4564 33.4144 80.5589 33.3308 80.6894C33.2471 80.8199 33.2043 80.9724 33.208 81.1274C33.2064 81.3292 33.2845 81.5234 33.4254 81.6678C33.5664 81.8122 33.7586 81.8951 33.9604 81.8984L33.9728 81.886ZM33.9728 76.5139C34.126 76.5127 34.2754 76.4662 34.4022 76.3804C34.5291 76.2945 34.6278 76.1731 34.6858 76.0313C34.7439 75.8895 34.7587 75.7338 34.7285 75.5836C34.6983 75.4334 34.6245 75.2955 34.5161 75.1872C34.4078 75.0789 34.2699 75.005 34.1197 74.9748C33.9695 74.9446 33.8138 74.9595 33.672 75.0175C33.5303 75.0756 33.4088 75.1742 33.323 75.3011C33.2371 75.4279 33.1906 75.5773 33.1894 75.7305C33.186 75.8354 33.204 75.9399 33.2424 76.0376C33.2808 76.1353 33.3387 76.2241 33.4127 76.2986C33.4866 76.3732 33.575 76.4318 33.6724 76.4709C33.7697 76.5101 33.8741 76.529 33.979 76.5264L33.9728 76.5139ZM33.9728 71.1419C34.1263 71.1419 34.2763 71.0965 34.404 71.0114C34.5316 70.9262 34.6312 70.8052 34.6902 70.6636C34.7492 70.5219 34.765 70.366 34.7355 70.2154C34.706 70.0648 34.6326 69.9263 34.5245 69.8173C34.4165 69.7084 34.2786 69.6339 34.1282 69.6032C33.9779 69.5725 33.8218 69.587 33.6797 69.6449C33.5376 69.7028 33.4158 69.8014 33.3296 69.9284C33.2435 70.0554 33.1968 70.2051 33.1956 70.3585C33.1923 70.4623 33.2099 70.5658 33.2476 70.6626C33.2852 70.7595 33.342 70.8477 33.4146 70.9221C33.4872 70.9964 33.5741 71.0553 33.67 71.0952C33.7659 71.1351 33.8689 71.1552 33.9728 71.1543V71.1419ZM28.6008 58.9554C28.4666 58.9517 28.3343 58.988 28.2207 59.0596C28.1071 59.1313 28.0174 59.2351 27.9629 59.3578C27.9084 59.4805 27.8916 59.6167 27.9146 59.749C27.9376 59.8813 27.9994 60.0038 28.0921 60.1009C28.1849 60.198 28.3044 60.2654 28.4355 60.2945C28.5666 60.3236 28.7034 60.313 28.8285 60.2643C28.9536 60.2155 29.0614 60.1306 29.1382 60.0205C29.215 59.9103 29.2573 59.7798 29.2599 59.6455C29.265 59.5562 29.2517 59.4667 29.2208 59.3828C29.1899 59.2988 29.142 59.222 29.0802 59.1573C29.0184 59.0926 28.944 59.0413 28.8615 59.0065C28.779 58.9718 28.6903 58.9544 28.6008 58.9554ZM28.6008 69.6994C28.4665 69.6982 28.3349 69.7369 28.2226 69.8106C28.1103 69.8843 28.0225 69.9897 27.9702 70.1135C27.918 70.2372 27.9037 70.3736 27.9291 70.5055C27.9546 70.6374 28.0186 70.7587 28.1132 70.8541C28.2077 70.9495 28.3284 71.0147 28.4601 71.0414C28.5917 71.068 28.7283 71.055 28.8525 71.0039C28.9767 70.9527 29.0829 70.8659 29.1576 70.7543C29.2324 70.6427 29.2723 70.5115 29.2723 70.3771C29.2757 70.2878 29.2608 70.1986 29.2283 70.1152C29.1959 70.0319 29.1467 69.956 29.0837 69.8925C29.0207 69.8289 28.9454 69.779 28.8623 69.7458C28.7792 69.7126 28.6902 69.6968 28.6008 69.6994ZM28.6008 75.0777C28.4668 75.0818 28.3371 75.1258 28.2284 75.2043C28.1197 75.2827 28.0369 75.3919 27.9908 75.5177C27.9447 75.6436 27.9372 75.7803 27.9695 75.9105C28.0018 76.0406 28.0722 76.158 28.1718 76.2478C28.2714 76.3375 28.3956 76.3953 28.5283 76.4139C28.6611 76.4324 28.7963 76.4108 28.9167 76.3519C29.0371 76.2929 29.1371 76.1992 29.2038 76.083C29.2704 75.9667 29.3008 75.8331 29.291 75.6994C29.2915 75.6117 29.2734 75.5248 29.238 75.4446C29.2026 75.3643 29.1506 75.2924 29.0854 75.2337C29.0202 75.175 28.9433 75.1307 28.8598 75.1038C28.7763 75.0769 28.688 75.068 28.6008 75.0777ZM28.6008 80.4497C28.4662 80.4485 28.3344 80.4873 28.222 80.5613C28.1096 80.6353 28.0217 80.7411 27.9697 80.8652C27.9176 80.9893 27.9037 81.126 27.9296 81.2581C27.9556 81.3901 28.0202 81.5114 28.1154 81.6066C28.2105 81.7018 28.3319 81.7664 28.4639 81.7924C28.5959 81.8183 28.7327 81.8044 28.8568 81.7523C28.9809 81.7003 29.0867 81.6124 29.1607 81.5C29.2347 81.3876 29.2735 81.2558 29.2723 81.1212C29.2798 81.0311 29.2677 80.9404 29.2366 80.8555C29.2055 80.7706 29.1563 80.6935 29.0924 80.6296C29.0284 80.5657 28.9513 80.5165 28.8664 80.4854C28.7815 80.4543 28.6909 80.4421 28.6008 80.4497ZM28.6008 91.1937C28.5117 91.1895 28.4226 91.2035 28.339 91.2347C28.2554 91.2659 28.1791 91.3138 28.1145 91.3754C28.05 91.437 27.9987 91.5111 27.9636 91.5932C27.9286 91.6752 27.9105 91.7636 27.9106 91.8528C27.9082 91.9853 27.9451 92.1156 28.0166 92.2272C28.0881 92.3388 28.191 92.4267 28.3123 92.4799C28.4337 92.5332 28.5681 92.5493 28.6986 92.5263C28.8292 92.5033 28.9499 92.4421 29.0458 92.3506C29.1416 92.2591 29.2083 92.1412 29.2373 92.0119C29.2663 91.8826 29.2563 91.7476 29.2088 91.6239C29.1612 91.5002 29.0781 91.3933 28.9699 91.3168C28.8617 91.2402 28.7333 91.1974 28.6008 91.1937ZM28.6008 85.8031C28.4665 85.8018 28.3349 85.8405 28.2226 85.9142C28.1103 85.988 28.0225 86.0934 27.9702 86.2171C27.918 86.3408 27.9037 86.4773 27.9291 86.6091C27.9546 86.741 28.0186 86.8624 28.1132 86.9578C28.2077 87.0532 28.3284 87.1183 28.4601 87.145C28.5917 87.1716 28.7283 87.1586 28.8525 87.1075C28.9767 87.0564 29.0829 86.9695 29.1576 86.8579C29.2324 86.7463 29.2723 86.6151 29.2723 86.4808C29.2757 86.3914 29.2608 86.3022 29.2283 86.2189C29.1959 86.1355 29.1467 86.0597 29.0837 85.9961C29.0207 85.9326 28.9454 85.8826 28.8623 85.8494C28.7792 85.8162 28.6902 85.8004 28.6008 85.8031ZM28.6008 64.3088C28.4662 64.3075 28.3344 64.3464 28.222 64.4204C28.1096 64.4944 28.0217 64.6001 27.9697 64.7242C27.9176 64.8483 27.9037 64.9851 27.9296 65.1171C27.9556 65.2492 28.0202 65.3705 28.1154 65.4657C28.2105 65.5608 28.3319 65.6255 28.4639 65.6514C28.5959 65.6774 28.7327 65.6635 28.8568 65.6114C28.9809 65.5593 29.0867 65.4715 29.1607 65.3591C29.2347 65.2467 29.2735 65.1148 29.2723 64.9803C29.2723 64.8929 29.2548 64.8065 29.2209 64.726C29.1869 64.6456 29.1371 64.5728 29.0745 64.5119C29.0119 64.451 28.9377 64.4033 28.8564 64.3716C28.775 64.34 28.6881 64.3249 28.6008 64.3274V64.3088ZM23.2474 91.2808C23.1723 91.2791 23.0976 91.2923 23.0276 91.3195C22.9575 91.3467 22.8935 91.3875 22.8393 91.4395C22.785 91.4915 22.7415 91.5536 22.7112 91.6224C22.681 91.6912 22.6646 91.7652 22.663 91.8404C22.6596 91.9131 22.6707 91.9857 22.6954 92.0541C22.7202 92.1225 22.7582 92.1854 22.8073 92.2391C22.8564 92.2928 22.9156 92.3363 22.9815 92.3671C23.0474 92.3979 23.1188 92.4154 23.1915 92.4186C23.2679 92.4245 23.3448 92.4152 23.4176 92.3911C23.4905 92.367 23.5578 92.3287 23.6156 92.2783C23.6735 92.228 23.7208 92.1666 23.7547 92.0979C23.7886 92.0291 23.8085 91.9542 23.8132 91.8777C23.8034 91.7296 23.741 91.59 23.6372 91.4839C23.5335 91.3779 23.3952 91.3125 23.2474 91.2994V91.2808ZM23.2474 80.5305C23.0951 80.5288 22.9483 80.5873 22.8389 80.6933C22.7295 80.7992 22.6662 80.944 22.663 81.0963C22.6596 81.1687 22.6707 81.241 22.6956 81.3091C22.7204 81.3771 22.7585 81.4396 22.8077 81.4928C22.8568 81.546 22.9161 81.5889 22.982 81.6191C23.0478 81.6492 23.1191 81.6659 23.1915 81.6683C23.2679 81.6743 23.3448 81.6649 23.4176 81.6408C23.4905 81.6167 23.5578 81.5784 23.6156 81.5281C23.6735 81.4777 23.7208 81.4164 23.7547 81.3476C23.7886 81.2788 23.8085 81.204 23.8132 81.1274C23.8034 80.9794 23.741 80.8397 23.6372 80.7337C23.5335 80.6276 23.3952 80.5622 23.2474 80.5492V80.5305ZM23.2474 76.3025C23.3259 76.3011 23.4032 76.2836 23.4746 76.251C23.5459 76.2185 23.6099 76.1716 23.6623 76.1133C23.7148 76.055 23.7548 75.9865 23.7796 75.9121C23.8045 75.8377 23.8138 75.7589 23.807 75.6808C23.807 75.6084 23.7927 75.5367 23.7648 75.4699C23.7369 75.4032 23.696 75.3426 23.6446 75.2917C23.5931 75.2408 23.532 75.2006 23.4649 75.1735C23.3978 75.1463 23.326 75.1328 23.2536 75.1336C23.178 75.132 23.1028 75.1453 23.0324 75.173C22.9619 75.2006 22.8977 75.2419 22.8433 75.2945C22.789 75.3471 22.7456 75.41 22.7157 75.4795C22.6858 75.549 22.67 75.6238 22.6692 75.6994C22.6686 75.8551 22.7263 76.0053 22.8311 76.1204C22.9358 76.2355 23.08 76.3072 23.235 76.3212L23.2474 76.3025ZM22.6754 70.3771C22.6762 70.4498 22.6913 70.5216 22.7199 70.5884C22.7485 70.6553 22.7899 70.7158 22.8419 70.7666C22.8938 70.8174 22.9553 70.8575 23.0227 70.8846C23.0902 70.9116 23.1623 70.9251 23.235 70.9243C23.3101 70.9251 23.3847 70.9111 23.4544 70.8831C23.5241 70.8551 23.5876 70.8137 23.6413 70.7612C23.695 70.7086 23.7378 70.646 23.7673 70.5769C23.7968 70.5078 23.8124 70.4336 23.8132 70.3585C23.8014 70.2086 23.7357 70.068 23.6283 69.9629C23.5208 69.8577 23.3789 69.795 23.2288 69.7865C23.1509 69.7872 23.0741 69.8037 23.0028 69.8351C22.9316 69.8666 22.8676 69.9122 22.8146 69.9692C22.7616 70.0263 22.7209 70.0935 22.6948 70.1669C22.6687 70.2402 22.6579 70.3181 22.663 70.3958L22.6754 70.3771ZM23.2412 64.4145C23.0949 64.4127 22.9537 64.4684 22.848 64.5695C22.7422 64.6706 22.6803 64.8091 22.6754 64.9554C22.6686 65.0325 22.6775 65.1102 22.7017 65.1838C22.7258 65.2574 22.7646 65.3253 22.8158 65.3835C22.867 65.4416 22.9294 65.4887 22.9993 65.522C23.0692 65.5553 23.1452 65.5741 23.2226 65.5771C23.3023 65.5855 23.3828 65.577 23.459 65.5522C23.5353 65.5274 23.6054 65.4869 23.665 65.4332C23.7245 65.3796 23.7721 65.3141 23.8047 65.2408C23.8373 65.1676 23.8541 65.0884 23.8541 65.0082C23.8541 64.9281 23.8373 64.8488 23.8047 64.7756C23.7721 64.7024 23.7245 64.6369 23.665 64.5832C23.6054 64.5296 23.5353 64.4891 23.459 64.4643C23.3828 64.4395 23.3023 64.431 23.2226 64.4393L23.2412 64.4145ZM23.2412 85.9088C23.0955 85.9104 22.9564 85.9694 22.8539 86.073C22.7515 86.1766 22.694 86.3164 22.6941 86.4621C22.6916 86.538 22.7043 86.6136 22.7317 86.6844C22.759 86.7552 22.8002 86.8198 22.853 86.8743C22.9058 86.9288 22.9691 86.9722 23.0389 87.0018C23.1088 87.0314 23.184 87.0466 23.2599 87.0466C23.4088 87.035 23.5485 86.9701 23.6535 86.864C23.7586 86.7578 23.8219 86.6174 23.8319 86.4683C23.8272 86.3918 23.8073 86.3169 23.7733 86.2482C23.7394 86.1794 23.6921 86.118 23.6343 86.0677C23.5764 86.0173 23.5091 85.979 23.4363 85.9549C23.3635 85.9308 23.2866 85.9215 23.2101 85.9274L23.2412 85.9088ZM23.2412 59.0424C23.1685 59.0399 23.0961 59.0518 23.028 59.0773C22.9599 59.1029 22.8975 59.1416 22.8444 59.1912C22.7912 59.2409 22.7484 59.3005 22.7184 59.3667C22.6883 59.433 22.6716 59.5045 22.6692 59.5771C22.6624 59.6538 22.6711 59.731 22.6949 59.8042C22.7186 59.8774 22.7569 59.945 22.8074 60.0031C22.8579 60.0611 22.9196 60.1084 22.9888 60.142C23.058 60.1757 23.1333 60.195 23.2101 60.1989C23.3638 60.1998 23.5124 60.1438 23.6273 60.0416C23.7421 59.9394 23.815 59.7983 23.8319 59.6455C23.8319 59.568 23.8164 59.4913 23.7862 59.4199C23.7559 59.3485 23.7117 59.2839 23.656 59.2299C23.6003 59.176 23.5343 59.1338 23.462 59.1058C23.3897 59.0779 23.3125 59.0648 23.235 59.0673L23.2412 59.0424ZM17.8754 86.829C17.9873 86.829 18.149 86.6549 18.3915 86.4808C18.1552 86.3067 18.006 86.1139 17.8754 86.1264C17.7448 86.1388 17.6143 86.3378 17.4899 86.4559C17.608 86.6051 17.72 86.8103 17.8692 86.8476L17.8754 86.829ZM18.2174 81.1088C18.2174 80.972 17.9998 80.8538 17.8754 80.7295C17.7448 80.86 17.5397 80.972 17.5148 81.1274C17.4899 81.2828 17.6951 81.3948 17.8692 81.631C18.0308 81.4072 18.2236 81.258 18.2112 81.1274L18.2174 81.1088ZM17.8505 76.0787C17.9873 76.0787 18.1117 75.8735 18.236 75.7554C18.1117 75.6186 17.9998 75.4134 17.8505 75.3823C17.7013 75.3512 17.577 75.5564 17.3345 75.7305C17.5645 75.9233 17.7137 76.1098 17.8443 76.0974L17.8505 76.0787ZM18.236 91.8714C18.1117 91.7409 17.9998 91.5295 17.8505 91.4984C17.7013 91.4673 17.577 91.6725 17.3345 91.8466C17.5707 92.0207 17.72 92.2134 17.8505 92.201C17.9811 92.1885 18.1055 92.0207 18.2298 91.8901L18.236 91.8714ZM17.8692 70.8808C18.0371 70.6321 18.236 70.4704 18.2049 70.3585C18.1739 70.2466 17.9625 70.1036 17.8257 69.9792C17.7137 70.1098 17.5148 70.2341 17.5086 70.3709C17.5023 70.5077 17.6889 70.6694 17.8692 70.8808ZM18.2112 64.9865C18.2112 64.8497 17.9935 64.7316 17.8692 64.601C17.7386 64.7316 17.5334 64.8497 17.5086 64.9989C17.4837 65.1481 17.6889 65.2663 17.863 65.5025C18.0308 65.2849 18.2236 65.1419 18.2112 65.0113V64.9865ZM17.4837 59.5834C17.608 59.7139 17.72 59.9253 17.8692 59.9564C18.0184 59.9875 18.1428 59.7823 18.3853 59.6082C18.149 59.4341 17.9998 59.2414 17.8692 59.2538C17.7386 59.2663 17.608 59.4901 17.4837 59.6082V59.5834ZM38.4992 97.6849C38.5041 97.8513 38.558 98.0125 38.6541 98.1484C38.7503 98.2842 38.8843 98.3887 39.0396 98.4487C39.1948 98.5088 39.3643 98.5216 39.5268 98.4857C39.6893 98.4498 39.8376 98.3668 39.9532 98.247C40.0687 98.1272 40.1463 97.9759 40.1763 97.8122C40.2062 97.6485 40.1872 97.4796 40.1216 97.3267C40.056 97.1737 39.9467 97.0435 39.8074 96.9524C39.6681 96.8613 39.505 96.8133 39.3386 96.8145C39.2227 96.8113 39.1074 96.8328 39.0004 96.8775C38.8934 96.9221 38.7971 96.989 38.7178 97.0736C38.6385 97.1581 38.578 97.2586 38.5403 97.3683C38.5027 97.4779 38.4887 97.5943 38.4992 97.7098V97.6849ZM39.32 103.965C39.4879 103.97 39.6535 103.924 39.7957 103.835C39.9378 103.745 40.0501 103.615 40.1181 103.462C40.1861 103.308 40.2067 103.138 40.1775 102.972C40.1482 102.807 40.0703 102.654 39.9537 102.533C39.8372 102.412 39.6872 102.328 39.5229 102.293C39.3587 102.257 39.1876 102.272 39.0315 102.334C38.8755 102.396 38.7415 102.504 38.6467 102.642C38.5519 102.781 38.5005 102.945 38.4992 103.113C38.4925 103.225 38.5087 103.337 38.5468 103.443C38.5849 103.549 38.6442 103.646 38.721 103.728C38.7978 103.81 38.8905 103.875 38.9935 103.92C39.0965 103.965 39.2076 103.989 39.32 103.99V103.965ZM33.9853 98.4373C34.1387 98.4348 34.2879 98.387 34.4142 98.2998C34.5405 98.2127 34.6382 98.0901 34.6949 97.9475C34.7517 97.8049 34.7649 97.6487 34.733 97.4986C34.7011 97.3485 34.6255 97.2113 34.5157 97.1041C34.406 96.9969 34.2669 96.9246 34.1161 96.8963C33.9653 96.868 33.8094 96.885 33.6683 96.9451C33.5271 97.0052 33.4069 97.1058 33.3228 97.2341C33.2386 97.3625 33.1944 97.5128 33.1956 97.6663C33.1913 97.7714 33.2087 97.8763 33.2468 97.9744C33.2848 98.0725 33.3427 98.1617 33.4168 98.2364C33.491 98.3111 33.5797 98.3697 33.6775 98.4086C33.7753 98.4474 33.8801 98.4656 33.9853 98.4621V98.4373ZM33.9853 102.342C33.8782 102.33 33.7699 102.341 33.6671 102.373C33.5643 102.405 33.4694 102.458 33.3883 102.529C33.3072 102.6 33.2417 102.687 33.196 102.785C33.1503 102.882 33.1253 102.988 33.1227 103.096C33.1202 103.203 33.14 103.31 33.1809 103.41C33.2219 103.51 33.2831 103.6 33.3607 103.674C33.4383 103.749 33.5306 103.807 33.6316 103.844C33.7327 103.881 33.8405 103.897 33.9479 103.89C34.1421 103.878 34.3247 103.794 34.4596 103.653C34.5946 103.513 34.672 103.328 34.6767 103.133C34.6814 102.939 34.613 102.749 34.4849 102.603C34.3569 102.456 34.1786 102.363 33.9853 102.342ZM28.6008 96.9948C28.4655 96.9836 28.3299 97.0133 28.2117 97.0801C28.0934 97.1469 27.998 97.2477 27.9377 97.3693C27.8774 97.491 27.8551 97.628 27.8736 97.7625C27.8921 97.8971 27.9506 98.0229 28.0415 98.1238C28.1324 98.2247 28.2515 98.296 28.3833 98.3283C28.5152 98.3607 28.6538 98.3528 28.7811 98.3055C28.9084 98.2582 29.0185 98.1737 29.0972 98.0631C29.1759 97.9524 29.2196 97.8207 29.2226 97.6849C29.2322 97.5977 29.2233 97.5095 29.1964 97.4259C29.1695 97.3424 29.1252 97.2655 29.0665 97.2003C29.0078 97.1352 28.9359 97.0831 28.8557 97.0477C28.7754 97.0123 28.6885 96.9942 28.6008 96.9948ZM28.6008 102.448C28.4665 102.446 28.3349 102.485 28.2226 102.559C28.1103 102.633 28.0225 102.738 27.9702 102.862C27.918 102.985 27.9037 103.122 27.9291 103.254C27.9546 103.386 28.0186 103.507 28.1132 103.602C28.2077 103.698 28.3284 103.763 28.4601 103.79C28.5917 103.816 28.7283 103.803 28.8525 103.752C28.9767 103.701 29.0829 103.614 29.1576 103.502C29.2324 103.391 29.2723 103.26 29.2723 103.125C29.2732 103.037 29.2563 102.95 29.2227 102.869C29.1891 102.788 29.1395 102.714 29.0768 102.653C29.0141 102.591 28.9396 102.543 28.8578 102.511C28.776 102.479 28.6886 102.464 28.6008 102.466V102.448ZM23.8008 103.069C23.8021 102.918 23.7478 102.771 23.6481 102.656C23.5485 102.541 23.4104 102.467 23.2599 102.448C23.1827 102.441 23.105 102.45 23.0314 102.474C22.9578 102.498 22.8899 102.537 22.8318 102.588C22.7736 102.639 22.7265 102.702 22.6932 102.772C22.6599 102.841 22.6412 102.917 22.6381 102.995C22.633 103.067 22.6424 103.14 22.6657 103.209C22.689 103.277 22.7257 103.341 22.7738 103.395C22.8218 103.449 22.8802 103.494 22.9455 103.525C23.0108 103.557 23.0817 103.575 23.1542 103.579C23.3033 103.601 23.4548 103.562 23.5759 103.473C23.6969 103.383 23.7778 103.249 23.8008 103.1V103.069ZM23.2163 97.088C23.144 97.0872 23.0721 97.1007 23.005 97.1279C22.9379 97.155 22.8769 97.1952 22.8254 97.2461C22.774 97.297 22.7331 97.3576 22.7052 97.4244C22.6773 97.4911 22.663 97.5628 22.663 97.6352C22.6596 97.7875 22.7165 97.935 22.8213 98.0456C22.9261 98.1562 23.0703 98.221 23.2226 98.2258C23.3716 98.2158 23.512 98.1525 23.6182 98.0475C23.7244 97.9425 23.7892 97.8027 23.8008 97.6538C23.7912 97.5065 23.725 97.3686 23.6161 97.2689C23.5072 97.1693 23.3639 97.1156 23.2163 97.1191V97.088ZM17.8941 97.2808C17.7573 97.4051 17.5459 97.5046 17.5086 97.6538C17.4713 97.8031 17.6702 97.9336 17.8319 98.1823C18.0184 97.9523 18.2112 97.8155 18.2049 97.6849C18.1987 97.5543 18.0308 97.4486 17.8941 97.3119V97.2808ZM17.8132 103.399C17.9562 103.281 18.1676 103.181 18.2049 103.032C18.2422 102.883 18.0433 102.752 17.8816 102.504C17.7013 102.727 17.5023 102.864 17.5086 102.995C17.5148 103.125 17.7075 103.299 17.8132 103.43V103.399Z" fill="#BD0000"/>
<path id="Vector_4" d="M42.2793 81.6503C42.3589 81.6193 42.4428 81.6004 42.528 81.5943C42.6489 81.5902 42.7694 81.6099 42.8826 81.6524C42.9959 81.6948 43.0996 81.7592 43.188 81.8417C43.2763 81.9243 43.3475 82.0235 43.3975 82.1336C43.4475 82.2437 43.4753 82.3626 43.4793 82.4835C43.4835 82.6048 43.4633 82.7256 43.4199 82.839C43.3766 82.9523 43.3109 83.0558 43.2268 83.1433C43.1428 83.2309 43.0421 83.3006 42.9306 83.3486C42.8191 83.3965 42.6991 83.4216 42.5778 83.4223C42.4763 83.422 42.3755 83.4052 42.2793 83.3726V81.6503ZM42.5467 84.0006C42.4553 84.006 42.3652 84.0249 42.2793 84.0565V85.8037C42.3713 85.8357 42.4679 85.8525 42.5653 85.8534C42.6913 85.8638 42.818 85.848 42.9375 85.807C43.0571 85.7659 43.1668 85.7005 43.2597 85.6149C43.3527 85.5293 43.4269 85.4254 43.4777 85.3096C43.5284 85.1939 43.5546 85.0689 43.5546 84.9425C43.5546 84.8162 43.5284 84.6912 43.4777 84.5754C43.4269 84.4597 43.3527 84.3557 43.2597 84.2701C43.1668 84.1845 43.0571 84.1192 42.9375 84.0781C42.818 84.0371 42.6913 84.0212 42.5653 84.0317L42.5467 84.0006ZM42.5467 74.5187C42.455 74.5261 42.3649 74.5471 42.2793 74.5809V76.2969C42.372 76.3261 42.4682 76.3428 42.5653 76.3467C42.8094 76.3434 43.0426 76.2446 43.2146 76.0714C43.3867 75.8982 43.4839 75.6644 43.4855 75.4203C43.4839 75.2992 43.4583 75.1796 43.4101 75.0685C43.3619 74.9574 43.292 74.857 43.2047 74.7731C43.1173 74.6892 43.0142 74.6235 42.9012 74.5799C42.7883 74.5362 42.6677 74.5154 42.5467 74.5187ZM42.5467 100.558C42.4449 100.555 42.3436 100.572 42.2482 100.608V102.318C42.3276 102.351 42.4114 102.372 42.4969 102.38C42.6223 102.393 42.749 102.38 42.8691 102.342C42.9892 102.304 43.1002 102.242 43.195 102.159C43.2898 102.076 43.3664 101.974 43.42 101.86C43.4736 101.746 43.5031 101.622 43.5065 101.496C43.51 101.37 43.4873 101.245 43.44 101.128C43.3927 101.011 43.3217 100.905 43.2316 100.817C43.1415 100.729 43.0341 100.661 42.9162 100.616C42.7984 100.571 42.6725 100.552 42.5467 100.558ZM42.5467 105.24C42.4533 105.245 42.3611 105.264 42.2731 105.296V106.944H43.0006C43.1435 106.865 43.2627 106.75 43.3459 106.61C43.429 106.47 43.473 106.311 43.4731 106.148C43.4682 105.906 43.3694 105.676 43.1975 105.507C43.0256 105.337 42.7943 105.242 42.5529 105.24H42.5467ZM43.4731 80.1581C43.4707 80.0372 43.4445 79.918 43.396 79.8073C43.3475 79.6966 43.2776 79.5965 43.1904 79.5128C43.1033 79.4291 43.0004 79.3634 42.8878 79.3194C42.7752 79.2754 42.6551 79.2541 42.5342 79.2565C42.4452 79.2598 42.3571 79.2766 42.2731 79.3063V81.0161C42.4096 81.0671 42.5565 81.0838 42.701 81.0647C42.8454 81.0456 42.983 80.9912 43.1015 80.9065C43.22 80.8218 43.3159 80.7092 43.3807 80.5787C43.4455 80.4482 43.4772 80.3037 43.4731 80.1581ZM42.6089 86.3757C42.497 86.3736 42.3856 86.3904 42.2793 86.4254V88.1415C42.3673 88.1732 42.4595 88.1921 42.5529 88.1975C42.7954 88.1975 43.0283 88.1025 43.2015 87.9327C43.3747 87.763 43.4744 87.5321 43.4793 87.2897C43.4843 87.1713 43.4659 87.053 43.4252 86.9417C43.3844 86.8304 43.3222 86.7283 43.2419 86.641C43.1616 86.5538 43.0649 86.4833 42.9574 86.4335C42.8498 86.3837 42.7335 86.3556 42.6151 86.3508L42.6089 86.3757ZM42.5405 76.8938C42.4488 76.8968 42.3583 76.9158 42.2731 76.9498V78.6596C42.3628 78.6922 42.4575 78.7091 42.5529 78.7094C42.797 78.7094 43.031 78.6124 43.2036 78.4399C43.3762 78.2673 43.4731 78.0332 43.4731 77.7892C43.4757 77.6671 43.4534 77.5458 43.4077 77.4325C43.362 77.3193 43.2937 77.2166 43.2071 77.1305C43.1205 77.0445 43.0173 76.9769 42.9037 76.932C42.7902 76.887 42.6687 76.8656 42.5467 76.869L42.5405 76.8938ZM42.5405 88.7073C42.4517 88.7165 42.3641 88.7353 42.2793 88.7633V90.4731C42.3713 90.5051 42.4679 90.5219 42.5653 90.5228C42.8083 90.5212 43.0408 90.4235 43.212 90.2511C43.3832 90.0787 43.4793 89.8456 43.4793 89.6026C43.4802 89.4802 43.4564 89.3589 43.4092 89.246C43.362 89.1331 43.2925 89.0308 43.2048 88.9454C43.1171 88.8601 43.013 88.7933 42.8989 88.7492C42.7847 88.705 42.6628 88.6845 42.5405 88.6887V88.7073ZM42.5405 91.0949C42.4426 91.0972 42.3459 91.1161 42.2545 91.1508V92.8669C42.3414 92.8936 42.4311 92.9102 42.5218 92.9166C42.6418 92.9191 42.7612 92.8979 42.873 92.8542C42.9849 92.8106 43.087 92.7453 43.1736 92.6622C43.2602 92.579 43.3296 92.4796 43.3778 92.3697C43.426 92.2597 43.452 92.1413 43.4545 92.0213C43.4595 91.7787 43.3692 91.5438 43.203 91.3671C43.0367 91.1904 42.8078 91.0859 42.5653 91.0762L42.5405 91.0949ZM42.5405 72.1374C42.4369 72.1377 42.3341 72.1545 42.2358 72.1871V73.9032C42.3157 73.9322 42.3996 73.949 42.4845 73.9529C42.6048 73.9587 42.725 73.9406 42.8381 73.8995C42.9513 73.8585 43.0552 73.7953 43.1437 73.7137C43.2322 73.6321 43.3036 73.5338 43.3538 73.4243C43.4039 73.3149 43.4318 73.1965 43.4358 73.0762C43.4445 72.8382 43.3606 72.6062 43.2017 72.4288C43.0429 72.2514 42.8215 72.1425 42.584 72.1249L42.5405 72.1374ZM42.5405 93.4389C42.4369 93.4392 42.3341 93.456 42.2358 93.4887V95.2047C42.3165 95.2308 42.4 95.2475 42.4845 95.2545C42.6048 95.2603 42.725 95.2422 42.8381 95.2011C42.9513 95.16 43.0552 95.0969 43.1437 95.0153C43.2322 94.9337 43.3036 94.8353 43.3538 94.7259C43.4039 94.6164 43.4318 94.4981 43.4358 94.3778C43.4446 94.1392 43.3609 93.9064 43.2022 93.728C43.0435 93.5496 42.822 93.4393 42.584 93.4203L42.5405 93.4389ZM42.5405 95.8451C42.4427 95.8481 42.3461 95.8671 42.2545 95.9011V97.6171C42.3398 97.6497 42.4304 97.6666 42.5218 97.6669C42.7638 97.6702 42.9973 97.5782 43.1719 97.4106C43.3464 97.243 43.4479 97.0134 43.4545 96.7716C43.4594 96.6508 43.4403 96.5303 43.3981 96.417C43.3558 96.3038 43.2914 96.2001 43.2086 96.1121C43.1258 96.024 43.0262 95.9534 42.9158 95.9044C42.8053 95.8553 42.6862 95.8289 42.5653 95.8265L42.5405 95.8451ZM42.2793 98.2389V99.955C42.3733 99.9876 42.4721 100.004 42.5716 100.005C42.8051 100.002 43.0288 99.9104 43.1973 99.7488C43.3659 99.5871 43.4667 99.3674 43.4793 99.1343C43.4852 99.0138 43.4668 98.8934 43.4253 98.7802C43.3838 98.667 43.3199 98.5632 43.2376 98.4751C43.1553 98.387 43.0561 98.3163 42.946 98.2672C42.8359 98.218 42.717 98.1915 42.5964 98.1892C42.4888 98.1895 42.3819 98.2063 42.2793 98.2389ZM42.5529 102.921C42.4595 102.921 42.3669 102.938 42.2793 102.971V104.68C42.3695 104.712 42.4637 104.731 42.5591 104.736C42.6788 104.738 42.7977 104.716 42.9089 104.671C43.0201 104.627 43.1213 104.561 43.2069 104.477C43.2924 104.393 43.3605 104.293 43.4073 104.183C43.454 104.073 43.4785 103.955 43.4793 103.835C43.481 103.712 43.4582 103.591 43.4123 103.477C43.3664 103.364 43.2983 103.261 43.2121 103.174C43.1258 103.087 43.023 103.018 42.9099 102.972C42.7967 102.925 42.6753 102.901 42.5529 102.902V102.921ZM42.5529 69.8057C42.455 69.8075 42.3582 69.8264 42.2669 69.8617V71.5032C42.3529 71.5342 42.4429 71.5531 42.5342 71.5591C42.7686 71.5659 42.9963 71.4805 43.1684 71.3212C43.3404 71.1619 43.4432 70.9415 43.4545 70.7073C43.4546 70.4685 43.3619 70.2391 43.196 70.0674C43.0301 69.8957 42.804 69.7952 42.5653 69.7871L42.5529 69.8057ZM43.4296 68.3944C43.4321 68.2785 43.4112 68.1634 43.368 68.0559C43.3249 67.9484 43.2604 67.8507 43.1785 67.7688C43.0966 67.6868 42.9989 67.6224 42.8914 67.5792C42.7839 67.5361 42.6687 67.5151 42.5529 67.5177C42.3898 67.5246 42.2321 67.5786 42.099 67.6731C42.1828 68.1729 42.2347 68.6776 42.2545 69.184C42.3573 69.2245 42.4673 69.2436 42.5778 69.2399C42.8021 69.2383 43.0169 69.1489 43.1761 68.9909C43.3354 68.8328 43.4263 68.6187 43.4296 68.3944ZM44.9156 76.2783C45.0222 76.28 45.1281 76.2602 45.2269 76.2202C45.3257 76.1802 45.4155 76.1207 45.4909 76.0453C45.5663 75.9699 45.6258 75.8801 45.6658 75.7813C45.7058 75.6825 45.7256 75.5766 45.7239 75.47C45.728 75.3614 45.7108 75.253 45.673 75.1511C45.6352 75.0492 45.5778 74.9557 45.5038 74.876C45.4299 74.7963 45.341 74.732 45.2422 74.6867C45.1434 74.6414 45.0366 74.616 44.928 74.612C44.7032 74.6136 44.4881 74.7041 44.3297 74.8636C44.1713 75.0232 44.0824 75.2389 44.0824 75.4638C44.0936 75.6765 44.1865 75.8768 44.3418 76.0227C44.497 76.1687 44.7025 76.2491 44.9156 76.2472V76.2783ZM44.9778 105.371C44.8666 105.361 44.7548 105.374 44.6489 105.409C44.543 105.445 44.4453 105.501 44.3617 105.574C44.278 105.648 44.2102 105.738 44.1622 105.839C44.1142 105.939 44.0871 106.049 44.0824 106.16C44.0816 106.341 44.1385 106.517 44.2447 106.664C44.3509 106.81 44.5009 106.919 44.6731 106.975H45.1456C45.3043 106.924 45.4442 106.827 45.5473 106.696C45.6503 106.566 45.7118 106.407 45.7239 106.241C45.7368 106.132 45.7275 106.022 45.6965 105.917C45.6656 105.812 45.6137 105.715 45.5439 105.63C45.4742 105.546 45.388 105.477 45.2907 105.427C45.1934 105.377 45.0869 105.347 44.9778 105.339V105.371ZM44.9342 103.026C44.8248 103.023 44.7158 103.041 44.6135 103.08C44.5111 103.119 44.4174 103.178 44.3377 103.253C44.258 103.328 44.1939 103.418 44.1491 103.518C44.1042 103.618 44.0794 103.725 44.0762 103.835C44.0885 104.05 44.1808 104.253 44.3349 104.404C44.489 104.554 44.6939 104.642 44.9094 104.649C45.1239 104.645 45.3283 104.557 45.4801 104.405C45.6318 104.254 45.7191 104.049 45.7239 103.835C45.728 103.728 45.7108 103.621 45.6732 103.52C45.6356 103.42 45.5784 103.328 45.5049 103.25C45.4314 103.172 45.3431 103.109 45.2451 103.065C45.1472 103.021 45.0415 102.998 44.9342 102.995V103.026ZM44.9342 100.682C44.7192 100.682 44.5125 100.766 44.3581 100.916C44.2037 101.066 44.1138 101.27 44.1073 101.485C44.1073 101.596 44.1294 101.707 44.1723 101.81C44.2151 101.913 44.278 102.006 44.3572 102.085C44.4363 102.163 44.5303 102.225 44.6336 102.268C44.7369 102.31 44.8475 102.331 44.9591 102.33C45.1741 102.32 45.3768 102.227 45.5242 102.071C45.6717 101.914 45.7522 101.706 45.7488 101.491C45.7531 101.379 45.7344 101.268 45.6938 101.164C45.6531 101.061 45.5915 100.966 45.5126 100.887C45.4338 100.809 45.3395 100.747 45.2357 100.706C45.1319 100.666 45.0208 100.647 44.9094 100.651L44.9342 100.682ZM44.9342 98.2762C44.8232 98.277 44.7134 98.2997 44.6111 98.343C44.5088 98.3862 44.4161 98.4492 44.3381 98.5283C44.2602 98.6074 44.1986 98.7011 44.1568 98.804C44.1151 98.9069 44.094 99.017 44.0949 99.128C44.103 99.3435 44.1956 99.5472 44.3527 99.695C44.5097 99.8427 44.7186 99.9227 44.9342 99.9177C45.0409 99.9185 45.1466 99.898 45.2451 99.8572C45.3436 99.8164 45.4329 99.7562 45.5077 99.6802C45.5826 99.6043 45.6413 99.514 45.6806 99.4149C45.7199 99.3158 45.7388 99.2098 45.7363 99.1032C45.7422 98.9923 45.7255 98.8814 45.6873 98.7772C45.6491 98.6729 45.5902 98.5775 45.514 98.4967C45.4379 98.4159 45.3461 98.3514 45.2443 98.3071C45.1425 98.2628 45.0328 98.2396 44.9218 98.2389L44.9342 98.2762ZM44.9342 95.9322C44.719 95.9399 44.5147 96.0288 44.3625 96.1811C44.2102 96.3334 44.1212 96.5377 44.1135 96.7529C44.1134 96.968 44.1971 97.1746 44.3469 97.329C44.4966 97.4834 44.7006 97.5734 44.9156 97.5798C45.1306 97.5866 45.3395 97.508 45.4968 97.3612C45.6541 97.2144 45.7469 97.0114 45.755 96.7964C45.7647 96.6801 45.7497 96.563 45.7109 96.4529C45.6721 96.3428 45.6105 96.2421 45.53 96.1576C45.4496 96.073 45.3521 96.0064 45.2441 95.9622C45.136 95.918 45.0198 95.8972 44.9032 95.9011L44.9342 95.9322ZM44.9342 93.5508C44.7196 93.544 44.5109 93.6216 44.3529 93.7669C44.1948 93.9122 44.0999 94.1136 44.0887 94.328C44.0862 94.4396 44.1058 94.5506 44.1464 94.6545C44.187 94.7584 44.2478 94.8533 44.3253 94.9337C44.4027 95.014 44.4953 95.0782 44.5977 95.1226C44.7001 95.167 44.8102 95.1907 44.9218 95.1923C45.1368 95.1874 45.3415 95.099 45.4924 94.9458C45.6433 94.7926 45.7285 94.5866 45.7301 94.3716C45.7369 94.2621 45.7212 94.1524 45.6839 94.0493C45.6467 93.9462 45.5887 93.8518 45.5135 93.772C45.4383 93.6921 45.3476 93.6286 45.2469 93.5852C45.1462 93.5418 45.0377 93.5195 44.928 93.5197L44.9342 93.5508ZM44.9342 91.2068C44.7186 91.2 44.509 91.2784 44.3508 91.4251C44.1925 91.5717 44.0984 91.7747 44.0887 91.9902C44.087 92.1013 44.1072 92.2115 44.1482 92.3148C44.1892 92.418 44.2501 92.5121 44.3275 92.5918C44.4049 92.6715 44.4972 92.7351 44.5991 92.7791C44.7011 92.8231 44.8108 92.8466 44.9218 92.8482C45.1373 92.845 45.3429 92.7571 45.4941 92.6035C45.6454 92.4499 45.7301 92.243 45.7301 92.0275C45.7369 91.9181 45.7212 91.8084 45.6839 91.7053C45.6467 91.6021 45.5887 91.5078 45.5135 91.4279C45.4383 91.3481 45.3476 91.2845 45.2469 91.2411C45.1462 91.1978 45.0377 91.1755 44.928 91.1757L44.9342 91.2068ZM44.8721 90.442C44.9834 90.4489 45.0949 90.4327 45.1996 90.3944C45.3044 90.356 45.4 90.2965 45.4806 90.2194C45.5612 90.1423 45.625 90.0494 45.6679 89.9464C45.7109 89.8435 45.732 89.7328 45.7301 89.6213C45.7302 89.4062 45.6465 89.1996 45.4968 89.0452C45.347 88.8908 45.143 88.8008 44.928 88.7943C44.7126 88.7971 44.5063 88.8814 44.3505 89.0302C44.1948 89.1791 44.1012 89.3814 44.0887 89.5964C44.0914 89.8052 44.1731 90.0053 44.3172 90.1564C44.4614 90.3074 44.6574 90.3984 44.8659 90.4109L44.8721 90.442ZM45.7301 87.3332C45.7414 87.218 45.7284 87.1017 45.692 86.9919C45.6555 86.882 45.5964 86.7811 45.5184 86.6955C45.4405 86.6099 45.3454 86.5417 45.2395 86.4952C45.1335 86.4486 45.0189 86.4249 44.9032 86.4254C44.6875 86.4317 44.4823 86.5202 44.3297 86.6728C44.1772 86.8253 44.0887 87.0305 44.0824 87.2462C44.0839 87.4602 44.1684 87.6653 44.3179 87.8183C44.4675 87.9714 44.6706 88.0605 44.8845 88.0669C44.9912 88.071 45.0976 88.054 45.1977 88.0168C45.2977 87.9796 45.3894 87.923 45.4675 87.8501C45.5455 87.7773 45.6083 87.6897 45.6524 87.5924C45.6964 87.4952 45.7207 87.3902 45.7239 87.2835L45.7301 87.3332ZM44.9156 84.1311C44.7003 84.1372 44.4953 84.2246 44.3419 84.3757C44.1885 84.5269 44.098 84.7305 44.0887 84.9456C44.0868 85.0569 44.1078 85.1673 44.1503 85.2701C44.1928 85.3729 44.2559 85.4659 44.3357 85.5434C44.4155 85.6208 44.5103 85.6811 44.6144 85.7206C44.7184 85.76 44.8293 85.7777 44.9405 85.7726C45.0469 85.771 45.1519 85.7482 45.2494 85.7056C45.3469 85.6631 45.435 85.6015 45.5085 85.5245C45.582 85.4476 45.6394 85.3567 45.6775 85.2574C45.7155 85.158 45.7334 85.052 45.7301 84.9456C45.7351 84.8345 45.7177 84.7234 45.6787 84.6192C45.6398 84.5149 45.5803 84.4196 45.5036 84.3389C45.427 84.2582 45.3349 84.1938 45.2328 84.1495C45.1306 84.1053 45.0207 84.0821 44.9094 84.0814L44.9156 84.1311ZM44.0887 82.5643C44.1121 82.7653 44.2063 82.9513 44.3544 83.0892C44.5025 83.227 44.6948 83.3077 44.8969 83.3166C45.1126 83.3151 45.3193 83.23 45.4735 83.0793C45.6277 82.9286 45.7175 82.7239 45.7239 82.5083C45.728 82.4022 45.7112 82.2962 45.6744 82.1966C45.6376 82.0969 45.5815 82.0055 45.5093 81.9275C45.4371 81.8496 45.3503 81.7866 45.2537 81.7422C45.1572 81.6979 45.0529 81.673 44.9467 81.669C44.8334 81.6638 44.7203 81.682 44.6143 81.7224C44.5084 81.7629 44.4119 81.8247 44.3308 81.904C44.2498 81.9833 44.1859 82.0784 44.1432 82.1834C44.1004 82.2885 44.0798 82.4012 44.0824 82.5146L44.0887 82.5643ZM44.9218 81.0472C45.1373 81.0439 45.3429 80.956 45.4941 80.8025C45.6454 80.6489 45.7301 80.442 45.7301 80.2265C45.7326 80.1201 45.7139 80.0143 45.6751 79.9152C45.6363 79.8162 45.5781 79.7258 45.5041 79.6494C45.43 79.5731 45.3415 79.5122 45.2436 79.4703C45.1458 79.4285 45.0406 79.4065 44.9342 79.4058C44.7143 79.399 44.5006 79.4796 44.3399 79.6299C44.1791 79.7801 44.0843 79.9879 44.0762 80.2078C44.0932 80.4201 44.1885 80.6186 44.3436 80.7645C44.4987 80.9105 44.7026 80.9935 44.9156 80.9975L44.9218 81.0472ZM44.9218 78.641C45.0285 78.6426 45.1344 78.6231 45.2335 78.5836C45.3326 78.5441 45.4229 78.4854 45.4992 78.4109C45.5755 78.3363 45.6363 78.2474 45.678 78.1492C45.7198 78.0511 45.7417 77.9456 45.7425 77.8389C45.7477 77.6237 45.6687 77.415 45.5224 77.2571C45.3762 77.0992 45.1741 77.0046 44.9591 76.9933C44.7353 76.9916 44.5199 77.0781 44.3593 77.234C44.1987 77.3899 44.106 77.6027 44.1011 77.8265C44.1164 78.0306 44.2069 78.2218 44.3551 78.3631C44.5032 78.5044 44.6985 78.5857 44.9032 78.5912L44.9218 78.641ZM44.8534 73.9032C45.0703 73.9271 45.2877 73.8639 45.458 73.7274C45.6282 73.591 45.7373 73.3925 45.7612 73.1757C45.7851 72.9589 45.7219 72.7414 45.5855 72.5711C45.449 72.4009 45.2506 72.2918 45.0337 72.2679C44.9264 72.2561 44.8177 72.2655 44.714 72.2957C44.6102 72.3258 44.5135 72.3761 44.4292 72.4437C44.3449 72.5112 44.2747 72.5947 44.2227 72.6894C44.1707 72.784 44.1378 72.888 44.126 72.9954C44.1141 73.1028 44.1235 73.2114 44.1537 73.3151C44.1838 73.4189 44.2341 73.5156 44.3017 73.5999C44.3692 73.6842 44.4527 73.7544 44.5474 73.8064C44.6421 73.8584 44.746 73.8913 44.8534 73.9032ZM44.9156 71.5529C45.0769 71.5566 45.2357 71.5123 45.3717 71.4256C45.5078 71.3389 45.6151 71.2137 45.68 71.066C45.7448 70.9183 45.7643 70.7546 45.736 70.5958C45.7077 70.4369 45.6329 70.29 45.521 70.1738C45.4091 70.0575 45.2652 69.9771 45.1076 69.9428C44.95 69.9084 44.7857 69.9217 44.6355 69.9808C44.4854 70.04 44.3563 70.1424 44.2644 70.275C44.1726 70.4077 44.1222 70.5646 44.1197 70.726C44.1302 70.9287 44.2155 71.1203 44.359 71.2639C44.5026 71.4074 44.6942 71.4927 44.8969 71.5032L44.9156 71.5529ZM43.3985 66.0006C43.3985 65.7845 43.3127 65.5774 43.1599 65.4246C43.0072 65.2719 42.8 65.1861 42.584 65.1861C42.369 65.1893 42.1636 65.2761 42.0116 65.4282C41.8595 65.5802 41.7727 65.7855 41.7695 66.0006C41.7695 66.2166 41.8553 66.4238 42.008 66.5765C42.1608 66.7293 42.368 66.8151 42.584 66.8151C42.8 66.8151 43.0072 66.7293 43.1599 66.5765C43.3127 66.4238 43.3985 66.2166 43.3985 66.0006ZM40.2897 62.8545C40.5188 63.2385 40.7264 63.6349 40.9114 64.042C40.982 63.9298 41.0227 63.8014 41.0296 63.669C41.039 63.5591 41.0256 63.4484 40.9904 63.3439C40.9551 63.2394 40.8986 63.1433 40.8245 63.0616C40.7504 62.9799 40.6602 62.9144 40.5596 62.8691C40.4591 62.8238 40.3502 62.7998 40.2399 62.7985L40.2897 62.8545ZM44.928 69.1591C45.0301 69.1633 45.132 69.1473 45.2279 69.112C45.3238 69.0768 45.4118 69.023 45.4869 68.9537C45.5619 68.8844 45.6226 68.8009 45.6654 68.7082C45.7082 68.6154 45.7323 68.5151 45.7363 68.413C45.7332 68.2067 45.6507 68.0095 45.506 67.8624C45.3612 67.7154 45.1654 67.6297 44.9591 67.6234C44.8545 67.6183 44.7499 67.6345 44.6517 67.6709C44.5534 67.7073 44.4636 67.7632 44.3875 67.8352C44.3114 67.9072 44.2507 67.9939 44.209 68.09C44.1672 68.1861 44.1453 68.2896 44.1446 68.3944C44.1525 68.5847 44.2329 68.7647 44.3693 68.8977C44.5057 69.0306 44.6878 69.1064 44.8783 69.1094L44.928 69.1591ZM42.6399 64.3716C42.7322 64.3716 42.8235 64.3531 42.9084 64.3173C42.9934 64.2815 43.0703 64.2289 43.1347 64.1629C43.199 64.0968 43.2494 64.0185 43.283 63.9326C43.3166 63.8467 43.3326 63.7549 43.3301 63.6627C43.3309 63.5662 43.3125 63.4704 43.2759 63.381C43.2394 63.2916 43.1854 63.2104 43.1171 63.1421C43.0488 63.0738 42.9676 63.0198 42.8782 62.9832C42.7888 62.9466 42.693 62.9282 42.5964 62.9291C42.4107 62.9424 42.2363 63.023 42.1058 63.1558C41.9753 63.2886 41.8977 63.4644 41.8876 63.6503C41.9 63.8297 41.9789 63.9979 42.1088 64.1222C42.2388 64.2464 42.4105 64.3176 42.5902 64.3218L42.6399 64.3716ZM44.9529 66.7032C45.0451 66.7048 45.1367 66.688 45.2223 66.6537C45.3079 66.6193 45.3857 66.5682 45.4512 66.5033C45.5167 66.4384 45.5685 66.361 45.6036 66.2757C45.6387 66.1904 45.6563 66.099 45.6555 66.0068C45.6572 65.8209 45.5858 65.6418 45.4567 65.5081C45.3276 65.3743 45.1511 65.2966 44.9653 65.2918C44.7788 65.2948 44.6006 65.3695 44.4675 65.5002C44.3344 65.631 44.2567 65.8079 44.2503 65.9944C44.2642 66.1634 44.3373 66.3222 44.4567 66.4428C44.5761 66.5633 44.7342 66.6379 44.9032 66.6534L44.9529 66.7032ZM47.2534 105.464C47.083 105.482 46.9254 105.563 46.8106 105.69C46.6959 105.817 46.6322 105.983 46.6317 106.154C46.6324 106.246 46.6517 106.337 46.6883 106.422C46.7249 106.507 46.7781 106.583 46.8447 106.647C46.9114 106.711 46.9902 106.76 47.0764 106.793C47.1626 106.826 47.2545 106.841 47.3467 106.838C47.5237 106.833 47.6916 106.758 47.8139 106.63C47.9362 106.502 48.0029 106.331 47.9995 106.154C48.0008 106.058 47.9819 105.963 47.9441 105.875C47.9063 105.787 47.8504 105.708 47.7801 105.643C47.7097 105.578 47.6265 105.528 47.5358 105.497C47.445 105.466 47.3488 105.455 47.2534 105.464ZM47.3218 104.494C47.5032 104.494 47.6772 104.422 47.8054 104.294C47.9337 104.165 48.0057 103.991 48.0057 103.81C48.0057 103.629 47.9337 103.455 47.8054 103.326C47.6772 103.198 47.5032 103.126 47.3218 103.126C47.2296 103.126 47.1383 103.144 47.0533 103.18C46.9683 103.216 46.8914 103.269 46.8271 103.335C46.7627 103.401 46.7123 103.479 46.6787 103.565C46.6452 103.651 46.6292 103.743 46.6317 103.835C46.634 103.925 46.6544 104.014 46.6915 104.096C46.7285 104.178 46.7816 104.252 46.8476 104.313C46.9137 104.375 46.9912 104.422 47.0759 104.453C47.1605 104.484 47.2504 104.498 47.3405 104.494H47.3218ZM47.2658 81.8244C47.0948 81.8383 46.9351 81.9154 46.8178 82.0407C46.7006 82.166 46.6342 82.3305 46.6317 82.5021C46.6299 82.5943 46.647 82.6859 46.6818 82.7712C46.7167 82.8566 46.7686 82.9339 46.8343 82.9985C46.9001 83.0631 46.9784 83.1136 47.0643 83.1469C47.1503 83.1803 47.2421 83.1957 47.3342 83.1923C47.5113 83.1906 47.6805 83.1192 47.8051 82.9934C47.9296 82.8677 47.9995 82.6978 47.9995 82.5208C48.0004 82.4275 47.9824 82.335 47.9466 82.2489C47.9107 82.1627 47.8578 82.0848 47.7909 82.0197C47.7241 81.9546 47.6448 81.9037 47.5577 81.8702C47.4707 81.8366 47.3777 81.821 47.2845 81.8244H47.2658ZM47.3032 77.0928C47.2136 77.0936 47.1251 77.1121 47.0428 77.1473C46.9605 77.1825 46.886 77.2337 46.8235 77.2979C46.7611 77.3621 46.712 77.438 46.679 77.5212C46.6461 77.6045 46.63 77.6934 46.6317 77.783C46.6362 77.9591 46.7074 78.127 46.8308 78.2528C46.9543 78.3786 47.1209 78.4529 47.2969 78.4607C47.3894 78.4632 47.4814 78.447 47.5673 78.413C47.6533 78.3789 47.7315 78.3278 47.7972 78.2628C47.8628 78.1977 47.9146 78.1199 47.9494 78.0343C47.9842 77.9486 48.0012 77.8567 47.9995 77.7643C47.9995 77.6759 47.9819 77.5883 47.9477 77.5068C47.9135 77.4253 47.8634 77.3514 47.8003 77.2894C47.7372 77.2275 47.6624 77.1787 47.5802 77.146C47.4981 77.1133 47.4102 77.0974 47.3218 77.099L47.3032 77.0928ZM47.3032 76.1166C47.3957 76.1159 47.4871 76.0965 47.5719 76.0594C47.6566 76.0224 47.733 75.9685 47.7964 75.9011C47.8597 75.8336 47.9088 75.7541 47.9405 75.6671C47.9722 75.5802 47.9859 75.4878 47.9809 75.3954C47.9697 75.2222 47.8912 75.0603 47.7623 74.9441C47.6333 74.828 47.4641 74.7668 47.2907 74.7736C47.121 74.7795 46.9594 74.8483 46.8376 74.9667C46.7158 75.085 46.6424 75.2445 46.6317 75.414C46.63 75.5047 46.6462 75.5948 46.6794 75.6791C46.7126 75.7635 46.762 75.8405 46.825 75.9057C46.8879 75.971 46.9631 76.0232 47.0462 76.0594C47.1293 76.0956 47.2187 76.115 47.3094 76.1166H47.3032ZM47.3467 73.7104C47.521 73.6992 47.6839 73.6199 47.8002 73.4896C47.9165 73.3593 47.977 73.1885 47.9684 73.014C47.9635 72.8326 47.8867 72.6607 47.7549 72.5359C47.6232 72.4111 47.4472 72.3438 47.2658 72.3488C47.176 72.3512 47.0876 72.3713 47.0055 72.408C46.9235 72.4446 46.8495 72.497 46.7877 72.5623C46.6629 72.694 46.5956 72.87 46.6006 73.0513C46.6035 73.1451 46.6257 73.2373 46.6658 73.3221C46.7058 73.4069 46.7629 73.4826 46.8335 73.5444C46.9041 73.6062 46.9866 73.6528 47.0759 73.6814C47.1653 73.71 47.2596 73.7198 47.3529 73.7104H47.3467ZM47.2534 84.2306C47.0835 84.2447 46.9252 84.3223 46.81 84.4479C46.6947 84.5735 46.6311 84.7379 46.6317 84.9083C46.6349 84.9982 46.6558 85.0865 46.6932 85.1682C46.7306 85.2499 46.7837 85.3235 46.8496 85.3847C46.9154 85.4459 46.9926 85.4935 47.0768 85.5249C47.1611 85.5562 47.2506 85.5707 47.3405 85.5674C47.4303 85.5641 47.5186 85.5432 47.6003 85.5058C47.682 85.4684 47.7556 85.4153 47.8168 85.3495C47.878 85.2837 47.9256 85.2065 47.957 85.1222C47.9883 85.038 48.0028 84.9484 47.9995 84.8586C47.9942 84.7675 47.9703 84.6784 47.9294 84.5968C47.8885 84.5152 47.8314 84.4429 47.7616 84.3841C47.6918 84.3253 47.6107 84.2814 47.5233 84.255C47.4359 84.2286 47.3441 84.2203 47.2534 84.2306ZM47.3094 100.782C47.2172 100.779 47.1253 100.794 47.0391 100.827C46.9529 100.859 46.8741 100.909 46.8074 100.973C46.7408 101.037 46.6876 101.113 46.651 101.198C46.6144 101.282 46.5951 101.374 46.5944 101.466C46.5934 101.559 46.6114 101.651 46.6474 101.736C46.6834 101.822 46.7365 101.899 46.8036 101.963C46.8706 102.027 46.9501 102.077 47.0371 102.109C47.1241 102.141 47.2168 102.155 47.3094 102.15C47.3973 102.148 47.484 102.129 47.5645 102.094C47.645 102.059 47.7177 102.008 47.7784 101.944C47.8391 101.88 47.8866 101.805 47.9182 101.723C47.9497 101.641 47.9647 101.554 47.9622 101.466C47.9628 101.294 47.8985 101.128 47.7821 101.001C47.6657 100.874 47.5058 100.796 47.3342 100.782H47.3094ZM47.3094 86.5684C47.2169 86.5683 47.1253 86.587 47.0403 86.6233C46.9552 86.6596 46.8784 86.7128 46.8144 86.7796C46.7505 86.8465 46.7008 86.9256 46.6683 87.0122C46.6358 87.0988 46.6212 87.1911 46.6254 87.2835C46.6329 87.4649 46.712 87.6359 46.8455 87.7589C46.9116 87.8198 46.9891 87.8671 47.0735 87.8981C47.1579 87.9291 47.2475 87.9431 47.3374 87.9394C47.4272 87.9358 47.5154 87.9144 47.597 87.8767C47.6785 87.8389 47.7519 87.7854 47.8128 87.7193C47.8737 87.6532 47.921 87.5758 47.952 87.4914C47.9829 87.407 47.997 87.3173 47.9933 87.2275C47.9917 87.1388 47.9725 87.0513 47.9369 86.97C47.9012 86.8887 47.8499 86.8153 47.7857 86.7541C47.7215 86.6928 47.6458 86.6448 47.563 86.6129C47.4802 86.5811 47.3919 86.566 47.3032 86.5684H47.3094ZM47.3094 90.299C47.4059 90.2988 47.5013 90.2782 47.5893 90.2385C47.6772 90.1988 47.7558 90.1409 47.8198 90.0687C47.8838 89.9965 47.9318 89.9115 47.9607 89.8194C47.9895 89.7273 47.9985 89.6301 47.9871 89.5342C47.9851 89.4444 47.9653 89.3559 47.9291 89.2737C47.8928 89.1915 47.8407 89.1173 47.7758 89.0552C47.7108 88.9931 47.6343 88.9445 47.5505 88.912C47.4668 88.8795 47.3774 88.8638 47.2876 88.8659C47.1978 88.8679 47.1093 88.8876 47.0271 88.9239C46.9449 88.9601 46.8706 89.0122 46.8086 89.0772C46.7465 89.1421 46.6978 89.2187 46.6653 89.3024C46.6328 89.3862 46.6172 89.4755 46.6192 89.5653C46.6158 89.6591 46.6316 89.7526 46.6655 89.84C46.6995 89.9275 46.7509 90.0071 46.8166 90.074C46.8824 90.141 46.9611 90.1938 47.048 90.2293C47.1348 90.2647 47.228 90.2821 47.3218 90.2804L47.3094 90.299ZM40.9114 61.2503C40.9165 61.1586 40.9031 61.0669 40.8723 60.9804C40.8414 60.894 40.7936 60.8146 40.7316 60.7468C40.6697 60.6791 40.5948 60.6244 40.5115 60.5859C40.4281 60.5475 40.3379 60.526 40.2462 60.5228C40.0725 60.5175 39.9034 60.579 39.7738 60.6947C39.6443 60.8104 39.564 60.9715 39.5498 61.1446C39.5411 61.2371 39.5519 61.3303 39.5814 61.4183C39.6109 61.5064 39.6586 61.5872 39.7212 61.6558C39.7839 61.7243 39.8602 61.7789 39.9453 61.8162C40.0303 61.8534 40.1222 61.8725 40.2151 61.8721C40.3887 61.8774 40.5578 61.8159 40.6874 61.7002C40.817 61.5845 40.8972 61.4235 40.9114 61.2503ZM47.328 98.3944C47.2359 98.3901 47.1439 98.4047 47.0577 98.4373C46.9714 98.4698 46.8927 98.5196 46.8263 98.5837C46.76 98.6477 46.7074 98.7246 46.6718 98.8096C46.6362 98.8947 46.6183 98.9861 46.6192 99.0783C46.6221 99.2545 46.6917 99.4231 46.8141 99.5501C46.9364 99.677 47.1023 99.7528 47.2783 99.7622C47.3707 99.7656 47.4628 99.7502 47.5491 99.7169C47.6354 99.6837 47.7141 99.6333 47.7803 99.5688C47.8466 99.5043 47.8991 99.427 47.9346 99.3416C47.9701 99.2562 47.988 99.1645 47.9871 99.0721C47.9887 98.9842 47.973 98.8968 47.9407 98.8151C47.9083 98.7333 47.8602 98.6588 47.7989 98.5958C47.7376 98.5328 47.6644 98.4825 47.5836 98.4479C47.5028 98.4134 47.4159 98.3952 47.328 98.3944ZM47.328 80.8482C47.4203 80.8486 47.5116 80.8297 47.5962 80.7928C47.6808 80.7559 47.7568 80.7019 47.8194 80.634C47.882 80.5662 47.9297 80.4861 47.9597 80.3988C47.9896 80.3115 48.0011 80.2189 47.9933 80.127C47.9791 79.955 47.8998 79.7948 47.7715 79.6793C47.6433 79.5637 47.4757 79.5015 47.3032 79.5052C47.1212 79.5101 46.9485 79.5867 46.8228 79.7183C46.697 79.8499 46.6283 80.0258 46.6317 80.2078C46.6458 80.3788 46.7243 80.538 46.8512 80.6534C46.9781 80.7688 47.1441 80.8317 47.3156 80.8296L47.328 80.8482ZM47.328 96.0503C47.1915 96.0466 47.057 96.0839 46.9418 96.1573C46.8267 96.2307 46.7361 96.3369 46.6818 96.4623C46.6276 96.5876 46.6121 96.7263 46.6374 96.8605C46.6626 96.9948 46.7275 97.1183 46.8236 97.2154C46.9197 97.3124 47.0427 97.3784 47.1767 97.4049C47.3107 97.4314 47.4495 97.4172 47.5754 97.3641C47.7012 97.311 47.8083 97.2215 47.8827 97.107C47.9572 96.9925 47.9957 96.8584 47.9933 96.7218C47.9933 96.5437 47.9226 96.3729 47.7966 96.247C47.6707 96.1211 47.4999 96.0503 47.3218 96.0503H47.328ZM47.328 91.3C47.1571 91.3163 46.9984 91.3957 46.8828 91.5228C46.7673 91.6498 46.7033 91.8154 46.7033 91.9871C46.7033 92.1588 46.7673 92.3244 46.8828 92.4514C46.9984 92.5784 47.1571 92.6579 47.328 92.6741C47.4209 92.6746 47.5128 92.6555 47.5978 92.6183C47.6829 92.581 47.7592 92.5264 47.8219 92.4578C47.8845 92.3893 47.9322 92.3084 47.9617 92.2204C47.9912 92.1324 48.002 92.0391 47.9933 91.9467C47.9852 91.768 47.9068 91.5998 47.7752 91.4786C47.6436 91.3575 47.4695 91.2933 47.2907 91.3H47.328ZM47.328 93.6441C47.146 93.6424 46.9708 93.7127 46.8404 93.8396C46.7099 93.9666 46.6349 94.1399 46.6317 94.3218C46.6299 94.414 46.647 94.5056 46.6818 94.5909C46.7167 94.6763 46.7686 94.7536 46.8343 94.8182C46.9001 94.8828 46.9784 94.9333 47.0643 94.9666C47.1503 94.9999 47.2421 95.0154 47.3342 95.012C47.5107 95.012 47.6799 94.9419 47.8047 94.8171C47.9294 94.6923 47.9995 94.5231 47.9995 94.3467C48.0021 94.2532 47.9856 94.1601 47.9508 94.0733C47.916 93.9865 47.8638 93.9077 47.7973 93.8418C47.7309 93.776 47.6517 93.7244 47.5645 93.6904C47.4774 93.6564 47.3842 93.6407 47.2907 93.6441H47.328ZM47.328 71.3539C47.4148 71.3627 47.5023 71.353 47.5851 71.3257C47.6679 71.2984 47.744 71.254 47.8085 71.1954C47.8729 71.1367 47.9244 71.0652 47.9594 70.9854C47.9945 70.9056 48.0124 70.8193 48.012 70.7322C48.0189 70.5581 47.9579 70.3882 47.8419 70.2583C47.7259 70.1283 47.5639 70.0486 47.3902 70.0358C47.2064 70.0235 47.025 70.0825 46.8836 70.2007C46.7423 70.3188 46.6521 70.4869 46.6317 70.67C46.6299 70.8466 46.6972 71.0169 46.8191 71.1446C46.941 71.2724 47.108 71.3475 47.2845 71.3539H47.328ZM47.328 68.9788C47.4143 68.9866 47.5012 68.9763 47.5832 68.9486C47.6652 68.9208 47.7405 68.8763 47.8043 68.8177C47.8681 68.7592 47.919 68.688 47.9537 68.6087C47.9884 68.5293 48.0061 68.4436 48.0057 68.357C48.0057 68.1921 47.9402 68.034 47.8236 67.9174C47.707 67.8008 47.5489 67.7353 47.384 67.7353C47.2191 67.7353 47.0609 67.8008 46.9443 67.9174C46.8277 68.034 46.7622 68.1921 46.7622 68.357C46.759 68.5016 46.8063 68.6428 46.8959 68.7563C46.9856 68.8698 47.112 68.9485 47.2534 68.9788H47.328ZM44.9591 64.2099C45.0381 64.2159 45.1175 64.2055 45.1923 64.1795C45.2672 64.1536 45.3359 64.1125 45.3942 64.0588C45.4525 64.0052 45.4991 63.9402 45.5312 63.8677C45.5634 63.7953 45.5802 63.7171 45.5809 63.6379C45.5815 63.4822 45.5237 63.332 45.419 63.2169C45.3142 63.1018 45.1701 63.0301 45.0151 63.0161C44.9303 63.011 44.8455 63.0233 44.7657 63.0523C44.6859 63.0812 44.6128 63.1262 44.5511 63.1845C44.4894 63.2427 44.4402 63.313 44.4066 63.391C44.3731 63.469 44.3559 63.553 44.356 63.6379C44.3661 63.7801 44.4247 63.9145 44.522 64.0186C44.6194 64.1228 44.7495 64.1903 44.8907 64.2099H44.9591ZM42.6462 61.8161C42.8045 61.8066 42.9532 61.7369 43.0619 61.6213C43.1705 61.5057 43.2309 61.353 43.2306 61.1943C43.2308 61.1144 43.2145 61.0352 43.1828 60.9617C43.1512 60.8883 43.1047 60.8221 43.0465 60.7673C42.9882 60.7125 42.9193 60.6703 42.844 60.6432C42.7687 60.6161 42.6887 60.6048 42.6089 60.6099C42.444 60.6099 42.2858 60.6754 42.1692 60.792C42.0526 60.9086 41.9871 61.0668 41.9871 61.2317C41.9961 61.3848 42.0614 61.5292 42.1705 61.637C42.2795 61.7449 42.4246 61.8087 42.5778 61.8161H42.6462ZM47.3342 66.5291C47.4821 66.521 47.621 66.4553 47.7209 66.346C47.8209 66.2367 47.8741 66.0926 47.869 65.9446C47.869 65.8712 47.8543 65.7985 47.8256 65.7308C47.7969 65.6632 47.755 65.602 47.7022 65.551C47.6494 65.4999 47.5868 65.46 47.5183 65.4336C47.4497 65.4073 47.3766 65.395 47.3032 65.3975C47.2297 65.3958 47.1566 65.4087 47.088 65.4353C47.0195 65.4619 46.9569 65.5017 46.9038 65.5525C46.8507 65.6033 46.8081 65.6641 46.7785 65.7314C46.7488 65.7987 46.7328 65.8711 46.7311 65.9446C46.7404 66.0998 46.8075 66.2459 46.9191 66.3541C47.0307 66.4622 47.1788 66.5247 47.3342 66.5291ZM40.2026 59.4161C40.2761 59.4195 40.3496 59.4083 40.4188 59.3832C40.4879 59.3581 40.5515 59.3196 40.6058 59.27C40.66 59.2203 40.704 59.1604 40.7351 59.0937C40.7662 59.0271 40.7839 58.9549 40.7871 58.8814C40.7761 58.7354 40.7139 58.598 40.6116 58.4934C40.5092 58.3888 40.3732 58.3236 40.2275 58.3094C40.161 58.3112 40.0956 58.326 40.0348 58.3529C39.9228 58.5021 39.8047 58.6513 39.699 58.8006C39.6955 58.8274 39.6955 58.8546 39.699 58.8814C39.6988 59.018 39.7508 59.1495 39.8445 59.2489C39.9381 59.3483 40.0663 59.4082 40.2026 59.4161ZM49.6472 93.7871C49.5071 93.7928 49.3739 93.8498 49.273 93.9472C49.1722 94.0446 49.1106 94.1757 49.1 94.3156C49.1 94.3899 49.1149 94.4634 49.1439 94.5318C49.1728 94.6001 49.2153 94.662 49.2687 94.7136C49.322 94.7653 49.3853 94.8056 49.4546 94.8323C49.5239 94.859 49.5978 94.8715 49.6721 94.869C49.7415 94.8666 49.8097 94.8505 49.8729 94.8217C49.9362 94.7929 49.9931 94.7519 50.0404 94.7011C50.0878 94.6503 50.1246 94.5906 50.1489 94.5255C50.1732 94.4605 50.1844 94.3912 50.1819 94.3218C50.1787 94.181 50.1214 94.0468 50.0218 93.9472C49.9222 93.8476 49.788 93.7903 49.6472 93.7871ZM50.1819 80.2078C50.187 80.1336 50.177 80.0592 50.1526 79.9889C50.1283 79.9186 50.09 79.854 50.0401 79.7989C49.9902 79.7437 49.9296 79.6992 49.8621 79.668C49.7946 79.6368 49.7215 79.6195 49.6472 79.6172C49.5075 79.6242 49.3751 79.6816 49.2745 79.7788C49.1739 79.8759 49.1119 80.0063 49.1 80.1456C49.0997 80.2862 49.1529 80.4216 49.2487 80.5243C49.3446 80.6271 49.4759 80.6895 49.6161 80.699C49.756 80.7076 49.8936 80.661 49.9994 80.5691C50.1052 80.4772 50.1708 80.3475 50.1819 80.2078ZM49.641 97.269C49.7808 97.2675 49.9148 97.2126 50.0154 97.1155C50.116 97.0183 50.1756 96.8864 50.1819 96.7467C50.1861 96.6768 50.1764 96.6067 50.1532 96.5406C50.1301 96.4744 50.0941 96.4136 50.0472 96.3615C50.0003 96.3094 49.9436 96.2672 49.8803 96.2373C49.8169 96.2073 49.7483 96.1903 49.6783 96.1871C49.6043 96.1846 49.5305 96.1968 49.4613 96.2231C49.392 96.2493 49.3287 96.289 49.2749 96.3399C49.2211 96.3908 49.178 96.4519 49.1479 96.5196C49.1179 96.5872 49.1017 96.6602 49.1 96.7342C49.1075 96.8753 49.1669 97.0086 49.2668 97.1084C49.3667 97.2083 49.4999 97.2677 49.641 97.2752V97.269ZM49.641 91.4431C49.497 91.4556 49.3631 91.5222 49.2662 91.6295C49.1693 91.7368 49.1166 91.8768 49.1187 92.0213C49.1202 92.0953 49.1367 92.1683 49.1673 92.2358C49.1978 92.3033 49.2418 92.3638 49.2964 92.4138C49.3511 92.4638 49.4153 92.5022 49.4852 92.5266C49.5551 92.5511 49.6293 92.5611 49.7032 92.556C49.7729 92.5529 49.8413 92.5358 49.9043 92.5058C49.9673 92.4757 50.0236 92.4334 50.07 92.3812C50.1164 92.3291 50.1518 92.2681 50.1743 92.202C50.1967 92.136 50.2056 92.066 50.2006 91.9964C50.2015 91.9227 50.1873 91.8496 50.159 91.7816C50.1306 91.7135 50.0887 91.652 50.0357 91.6008C49.9827 91.5495 49.9198 91.5097 49.8509 91.4836C49.7819 91.4576 49.7084 91.4459 49.6348 91.4493L49.641 91.4431ZM49.6721 78.3425C49.8128 78.333 49.9444 78.2694 50.0394 78.1651C50.1344 78.0609 50.1854 77.924 50.1819 77.783C50.1811 77.7135 50.1666 77.645 50.1393 77.5812C50.112 77.5174 50.0724 77.4596 50.0227 77.4111C49.9731 77.3626 49.9144 77.3243 49.8499 77.2985C49.7855 77.2727 49.7166 77.2599 49.6472 77.2607C49.5067 77.262 49.3721 77.3167 49.2705 77.4137C49.1689 77.5107 49.1079 77.6427 49.1 77.783C49.1049 77.932 49.167 78.0734 49.2736 78.1777C49.3802 78.2819 49.523 78.341 49.6721 78.3425ZM49.6721 83.0741C49.742 83.0758 49.8115 83.0636 49.8767 83.0381C49.9419 83.0127 50.0013 82.9746 50.0516 82.926C50.1019 82.8774 50.1421 82.8193 50.1698 82.7551C50.1975 82.6909 50.2122 82.6218 50.213 82.5519C50.2151 82.4123 50.1644 82.277 50.071 82.1732C49.9776 82.0694 49.8484 82.0048 49.7094 81.9923C49.5602 81.9921 49.4168 82.0496 49.309 82.1528C49.2013 82.2559 49.1376 82.3966 49.1311 82.5456C49.1426 82.6764 49.2001 82.7989 49.2935 82.8911C49.3869 82.9834 49.5101 83.0395 49.641 83.0493L49.6721 83.0741ZM49.6721 74.9166C49.5978 74.9141 49.5239 74.9266 49.4546 74.9533C49.3853 74.98 49.322 75.0203 49.2687 75.072C49.2153 75.1236 49.1728 75.1854 49.1439 75.2538C49.1149 75.3222 49.1 75.3957 49.1 75.47C49.1106 75.6098 49.1722 75.7409 49.273 75.8384C49.3739 75.9358 49.5071 75.9928 49.6472 75.9985C49.788 75.9953 49.9222 75.938 50.0218 75.8384C50.1214 75.7388 50.1787 75.6046 50.1819 75.4638C50.187 75.3925 50.1777 75.321 50.1546 75.2534C50.1316 75.1858 50.0952 75.1235 50.0477 75.0702C50.0002 75.0169 49.9425 74.9736 49.8779 74.943C49.8134 74.9123 49.7434 74.8949 49.6721 74.8918V74.9166ZM49.6348 89.0804C49.4944 89.085 49.3611 89.1428 49.2618 89.2421C49.1625 89.3414 49.1047 89.4747 49.1 89.6151C49.1025 89.6894 49.1195 89.7625 49.1502 89.8302C49.1809 89.898 49.2246 89.959 49.2789 90.0098C49.3332 90.0606 49.3969 90.1002 49.4665 90.1264C49.5361 90.1525 49.6102 90.1647 49.6845 90.1622C49.8241 90.1496 49.9535 90.0838 50.0461 89.9786C50.1386 89.8733 50.1873 89.7365 50.1819 89.5964C50.1828 89.5246 50.1692 89.4534 50.1419 89.387C50.1146 89.3205 50.0742 89.2603 50.0232 89.2098C49.9721 89.1593 49.9114 89.1196 49.8447 89.0931C49.7779 89.0666 49.7066 89.0538 49.6348 89.0555V89.0804ZM49.6348 105.632C49.4941 105.634 49.3595 105.689 49.2572 105.786C49.1549 105.882 49.0922 106.014 49.0814 106.154C49.0788 106.228 49.0915 106.302 49.1187 106.371C49.1459 106.44 49.187 106.503 49.2395 106.555C49.292 106.608 49.3547 106.649 49.4238 106.676C49.4929 106.703 49.5668 106.716 49.641 106.714C49.7801 106.71 49.9123 106.652 50.0089 106.552C50.1055 106.452 50.1587 106.318 50.157 106.179C50.1625 106.038 50.1141 105.901 50.0217 105.794C49.9292 105.688 49.7998 105.621 49.6596 105.607L49.6348 105.632ZM49.6348 99.6441C49.7739 99.6331 49.9037 99.57 49.9982 99.4674C50.0928 99.3648 50.145 99.2302 50.1446 99.0907C50.145 99.0163 50.1297 98.9427 50.0998 98.8747C50.0698 98.8066 50.0258 98.7456 49.9706 98.6958C49.9154 98.6459 49.8503 98.6082 49.7796 98.5852C49.7089 98.5622 49.6341 98.5544 49.5602 98.5622C49.4205 98.5764 49.2917 98.6437 49.2003 98.7501C49.1089 98.8566 49.0619 98.9941 49.069 99.1343C49.0905 99.2759 49.1644 99.4044 49.276 99.4942C49.3877 99.584 49.5291 99.6286 49.6721 99.6192L49.6348 99.6441ZM49.585 86.7425C49.4443 86.7489 49.3114 86.8094 49.2141 86.9113C49.1168 87.0133 49.0626 87.1488 49.0627 87.2897C49.0717 87.4296 49.1317 87.5614 49.2315 87.66C49.3312 87.7586 49.4636 87.8171 49.6037 87.8244C49.678 87.8229 49.7512 87.8064 49.819 87.7759C49.8868 87.7454 49.9478 87.7016 49.9982 87.647C50.0487 87.5925 50.0877 87.5283 50.1129 87.4584C50.138 87.3884 50.1488 87.3142 50.1446 87.2399C50.1446 87.1714 50.1311 87.1034 50.1049 87.0401C50.0786 86.9767 50.0401 86.9191 49.9916 86.8706C49.9431 86.8221 49.8856 86.7837 49.8222 86.7574C49.7588 86.7312 49.6909 86.7177 49.6223 86.7177L49.585 86.7425ZM49.6285 85.499C49.7677 85.4896 49.8981 85.428 49.9938 85.3266C50.0895 85.2251 50.1434 85.0913 50.1446 84.9519C50.1454 84.8819 50.1324 84.8125 50.1062 84.7477C50.08 84.6829 50.0412 84.6239 49.992 84.5741C49.9429 84.5244 49.8843 84.4849 49.8198 84.458C49.7553 84.431 49.686 84.4171 49.6161 84.4172C49.4756 84.4168 49.3402 84.47 49.2374 84.5658C49.1347 84.6617 49.0722 84.793 49.0627 84.9332C49.077 85.0811 49.1475 85.2178 49.2598 85.315C49.3721 85.4123 49.5175 85.4626 49.6659 85.4555L49.6285 85.499ZM49.6285 104.394C49.698 104.392 49.7662 104.376 49.8294 104.347C49.8926 104.318 49.9495 104.277 49.9969 104.226C50.0442 104.176 50.0811 104.116 50.1054 104.051C50.1297 103.986 50.1409 103.917 50.1384 103.847C50.1337 103.707 50.0759 103.574 49.9766 103.474C49.8773 103.375 49.744 103.317 49.6037 103.312C49.4747 103.33 49.3558 103.391 49.2673 103.486C49.1788 103.582 49.1262 103.705 49.1187 103.835C49.1267 103.976 49.1887 104.108 49.2918 104.204C49.3949 104.3 49.5311 104.353 49.6721 104.351L49.6285 104.394ZM49.6285 73.6109C49.698 73.6077 49.7661 73.5909 49.829 73.5613C49.8919 73.5318 49.9484 73.4901 49.9951 73.4387C50.0419 73.3873 50.0781 73.3272 50.1016 73.2618C50.1251 73.1964 50.1355 73.127 50.1322 73.0576C50.1259 72.9173 50.0665 72.7846 49.9661 72.6865C49.8656 72.5884 49.7316 72.5321 49.5912 72.5291C49.4517 72.5377 49.3199 72.5967 49.2205 72.695C49.121 72.7933 49.0606 72.9243 49.0503 73.0638C49.0564 73.1389 49.0777 73.212 49.113 73.2786C49.1483 73.3452 49.1969 73.4039 49.2557 73.451C49.3145 73.4982 49.3823 73.5328 49.455 73.5528C49.5276 73.5729 49.6036 73.5778 49.6783 73.5674L49.6285 73.6109ZM49.585 100.968C49.4445 100.979 49.3127 101.04 49.2142 101.141C49.1158 101.242 49.0575 101.375 49.0503 101.516C49.055 101.656 49.1128 101.789 49.2121 101.889C49.3114 101.988 49.4447 102.046 49.585 102.05C49.7248 102.054 49.8603 102.002 49.9626 101.907C50.0648 101.812 50.1257 101.68 50.1322 101.54C50.1417 101.467 50.1362 101.393 50.1161 101.321C50.096 101.25 50.0616 101.184 50.0151 101.126C49.9686 101.069 49.9109 101.021 49.8456 100.987C49.7802 100.952 49.7085 100.931 49.6348 100.925L49.585 100.968ZM49.585 71.2607C49.6588 71.2687 49.7335 71.2611 49.8041 71.2384C49.8748 71.2156 49.9399 71.1783 49.9952 71.1287C50.0504 71.0791 50.0946 71.0185 50.1249 70.9507C50.1551 70.8829 50.1708 70.8095 50.1708 70.7353C50.1708 70.6611 50.1551 70.5876 50.1249 70.5199C50.0946 70.4521 50.0504 70.3914 49.9952 70.3419C49.9399 70.2923 49.8748 70.2549 49.8041 70.2322C49.7335 70.2095 49.6588 70.2019 49.585 70.2099C49.5164 70.2082 49.4482 70.2201 49.3842 70.2448C49.3202 70.2696 49.2617 70.3067 49.212 70.354C49.1624 70.4014 49.1225 70.458 49.0948 70.5208C49.067 70.5835 49.0519 70.6511 49.0503 70.7197C49.0541 70.7915 49.0725 70.8617 49.1044 70.926C49.1362 70.9904 49.1808 71.0476 49.2355 71.0942C49.2902 71.1407 49.3538 71.1756 49.4225 71.1968C49.4911 71.2179 49.5634 71.2249 49.6348 71.2171L49.585 71.2607ZM44.8907 61.7291C44.9601 61.7299 45.0289 61.7168 45.093 61.6905C45.1572 61.6641 45.2154 61.6251 45.2642 61.5758C45.3129 61.5265 45.3512 61.4678 45.3768 61.4033C45.4024 61.3389 45.4147 61.2699 45.413 61.2006C45.4147 61.1356 45.4032 61.071 45.3791 61.0106C45.355 60.9502 45.3189 60.8954 45.2729 60.8494C45.227 60.8035 45.1722 60.7674 45.1118 60.7433C45.0514 60.7192 44.9868 60.7077 44.9218 60.7094C44.8526 60.7059 44.7833 60.7168 44.7185 60.7414C44.6536 60.7659 44.5945 60.8036 44.5449 60.852C44.4953 60.9005 44.4562 60.9587 44.4301 61.0229C44.4041 61.0872 44.3915 61.1561 44.3933 61.2254C44.4006 61.3556 44.4552 61.4786 44.5468 61.5713C44.6384 61.6641 44.7607 61.7202 44.8907 61.7291ZM42.5716 59.3664C42.6361 59.3648 42.6996 59.3505 42.7586 59.3243C42.8176 59.2981 42.8708 59.2605 42.9153 59.2138C42.9597 59.167 42.9945 59.1119 43.0177 59.0517C43.0409 58.9915 43.052 58.9273 43.0503 58.8627C43.0521 58.7983 43.0406 58.7342 43.0163 58.6745C42.9921 58.6147 42.9558 58.5607 42.9097 58.5157C42.8635 58.4707 42.8085 58.4358 42.7482 58.4131C42.6879 58.3904 42.6235 58.3805 42.5591 58.384C42.4283 58.3856 42.3033 58.4387 42.2114 58.5319C42.1195 58.625 42.0679 58.7505 42.0679 58.8814C42.0784 59.0097 42.1354 59.1298 42.2281 59.2191C42.3208 59.3084 42.4429 59.3607 42.5716 59.3664ZM47.2534 64.098C47.3824 64.1067 47.5097 64.0648 47.6084 63.9812C47.707 63.8977 47.7693 63.779 47.7819 63.6503C47.7879 63.5206 47.7453 63.3934 47.6625 63.2934C47.5798 63.1934 47.4627 63.1278 47.3342 63.1094C47.2061 63.097 47.0781 63.1347 46.9772 63.2148C46.8763 63.2948 46.8104 63.4108 46.7933 63.5384C46.7817 63.6061 46.7848 63.6756 46.8024 63.742C46.82 63.8085 46.8517 63.8703 46.8954 63.9234C46.939 63.9765 46.9936 64.0196 47.0554 64.0497C47.1172 64.0798 47.1847 64.0963 47.2534 64.098ZM49.6472 68.8545C49.7749 68.8411 49.8936 68.7823 49.9815 68.6887C50.0694 68.595 50.1207 68.4729 50.126 68.3446C50.1251 68.2801 50.1116 68.2164 50.0862 68.1571C50.0608 68.0978 50.0239 68.0441 49.9777 67.9991C49.9315 67.9541 49.8769 67.9186 49.817 67.8946C49.7571 67.8707 49.6931 67.8588 49.6285 67.8596C49.5644 67.8563 49.5003 67.866 49.4401 67.8882C49.3798 67.9104 49.3248 67.9447 49.2782 67.9889C49.2317 68.0331 49.1946 68.0864 49.1693 68.1454C49.144 68.2044 49.131 68.268 49.1311 68.3322C49.1283 68.4031 49.1405 68.4739 49.167 68.5398C49.1934 68.6057 49.2335 68.6652 49.2846 68.7146C49.3356 68.7639 49.3966 68.8018 49.4633 68.8259C49.5301 68.8501 49.6013 68.8598 49.6721 68.8545H49.6472ZM49.6472 66.4047C49.7665 66.3983 49.8785 66.345 49.9588 66.2566C50.0391 66.1681 50.0813 66.0516 50.0762 65.9322C50.077 65.8769 50.0669 65.8221 50.0463 65.7708C50.0257 65.7196 49.9952 65.6729 49.9564 65.6336C49.9177 65.5942 49.8715 65.563 49.8205 65.5417C49.7696 65.5203 49.7149 65.5094 49.6596 65.5094C49.6 65.5069 49.5405 65.5162 49.4845 65.5367C49.4284 65.5572 49.377 65.5886 49.3331 65.629C49.2892 65.6694 49.2537 65.7181 49.2287 65.7723C49.2036 65.8264 49.1895 65.885 49.1871 65.9446C49.1932 66.0657 49.2445 66.1801 49.3308 66.2653C49.4171 66.3505 49.5322 66.4002 49.6534 66.4047H49.6472ZM47.3156 61.6109C47.4175 61.6034 47.513 61.5587 47.5841 61.4853C47.6551 61.412 47.6968 61.3151 47.7011 61.213C47.7007 61.1576 47.6885 61.103 47.6654 61.0526C47.6423 61.0023 47.6088 60.9574 47.567 60.921C47.5253 60.8846 47.4764 60.8574 47.4234 60.8413C47.3704 60.8252 47.3146 60.8205 47.2596 60.8275C47.2086 60.8296 47.1585 60.8424 47.1126 60.865C47.0668 60.8876 47.0262 60.9196 46.9934 60.9588C46.9606 60.998 46.9364 61.0436 46.9223 61.0928C46.9082 61.1419 46.9045 61.1934 46.9114 61.2441C46.9194 61.3463 46.9665 61.4416 47.043 61.5099C47.1194 61.5783 47.2193 61.6144 47.3218 61.6109H47.3156ZM44.9094 59.2731C45.0116 59.2683 45.1081 59.2243 45.1788 59.1502C45.2494 59.076 45.2888 58.9776 45.2886 58.8752C45.2921 58.8244 45.285 58.7735 45.2677 58.7257C45.2504 58.6778 45.2234 58.6341 45.1883 58.5972C45.1532 58.5604 45.1109 58.5313 45.0639 58.5117C45.017 58.4921 44.9665 58.4825 44.9156 58.4835C44.8143 58.4766 44.7144 58.51 44.6376 58.5763C44.5607 58.6427 44.5132 58.7367 44.5052 58.8379C44.5027 58.8936 44.5114 58.9493 44.5309 59.0016C44.5503 59.0539 44.58 59.1018 44.6183 59.1423C44.6566 59.1829 44.7026 59.2154 44.7537 59.2379C44.8047 59.2604 44.8598 59.2723 44.9156 59.2731H44.9094ZM52.0721 97.0824C52.2151 97.0389 52.327 96.8897 52.5322 96.7218C52.3208 96.5602 52.2026 96.4109 52.0534 96.3674C51.9042 96.3239 51.6555 96.5415 51.6617 96.7405C51.6679 96.9394 51.8855 97.1508 52.0783 97.0824H52.0721ZM51.6741 91.9716C51.6182 92.1581 51.842 92.3695 52.041 92.3695C52.2399 92.3695 52.4576 92.1581 52.3892 91.9591C52.3208 91.7602 52.1964 91.7042 52.0285 91.499C51.8918 91.6402 51.7747 91.7991 51.6804 91.9716H51.6741ZM52.1156 77.3912C51.8171 77.3912 51.6306 77.6213 51.6679 77.814C51.6774 77.9075 51.723 77.9936 51.795 78.054C51.867 78.1144 51.9597 78.1443 52.0534 78.1374C52.1049 78.1399 52.1563 78.1304 52.2035 78.1094C52.2506 78.0885 52.2922 78.0568 52.3249 78.0169C52.3575 77.977 52.3803 77.93 52.3915 77.8796C52.4027 77.8293 52.4019 77.777 52.3892 77.727C52.3456 77.584 52.1902 77.4721 52.1218 77.3912H52.1156ZM52.0161 80.5436C52.0666 80.5482 52.1174 80.5419 52.1651 80.5248C52.2128 80.5078 52.2563 80.4806 52.2924 80.4451C52.3285 80.4096 52.3564 80.3666 52.3742 80.3192C52.392 80.2718 52.3992 80.221 52.3954 80.1705C52.3401 80.0379 52.2623 79.9159 52.1653 79.8099C51.8482 79.8099 51.6493 79.9716 51.6617 80.1767C51.6647 80.272 51.7035 80.3627 51.7703 80.4306C51.8371 80.4986 51.9271 80.5389 52.0223 80.5436H52.0161ZM52.0161 103.449C51.9695 103.446 51.9228 103.452 51.8785 103.466C51.8342 103.481 51.7932 103.505 51.758 103.535C51.7227 103.566 51.6939 103.603 51.6731 103.645C51.6523 103.687 51.64 103.732 51.6368 103.779C51.5995 103.972 51.7923 104.183 52.0907 104.195C52.1998 104.096 52.2903 103.978 52.3581 103.847C52.3692 103.801 52.3697 103.752 52.3597 103.705C52.3497 103.658 52.3294 103.614 52.3002 103.576C52.2711 103.538 52.2338 103.507 52.1911 103.485C52.1484 103.463 52.1014 103.451 52.0534 103.449H52.0161ZM51.6368 87.2026C51.6275 87.253 51.6296 87.3048 51.6429 87.3542C51.6563 87.4036 51.6806 87.4494 51.714 87.4882C51.7474 87.527 51.7891 87.5578 51.836 87.5783C51.8829 87.5989 51.9339 87.6086 51.985 87.6068C52.1209 87.5618 52.2473 87.4923 52.3581 87.4016C52.3954 87.0907 52.2337 86.8793 52.0285 86.8793C51.9409 86.8829 51.8573 86.9173 51.7925 86.9765C51.7277 87.0356 51.6858 87.1157 51.6741 87.2026H51.6368ZM51.985 94.7073C52.0355 94.712 52.0863 94.7056 52.134 94.6886C52.1817 94.6716 52.2252 94.6444 52.2613 94.6088C52.2974 94.5733 52.3253 94.5303 52.3431 94.4829C52.3609 94.4355 52.3681 94.3848 52.3643 94.3342C52.3106 94.2008 52.2326 94.0786 52.1342 93.9736C51.8171 93.9736 51.6182 94.1353 51.6306 94.3405C51.6322 94.3903 51.6436 94.4393 51.6642 94.4847C51.6848 94.5301 51.7141 94.571 51.7504 94.6051C51.7868 94.6391 51.8296 94.6657 51.8762 94.6833C51.9229 94.7008 51.9725 94.709 52.0223 94.7073H51.985ZM51.6368 101.497C51.6416 101.591 51.6824 101.68 51.7507 101.744C51.8189 101.809 51.9095 101.845 52.0037 101.845C52.2089 101.845 52.383 101.652 52.3643 101.342C52.2605 101.243 52.1378 101.167 52.0037 101.118C51.9562 101.118 51.9094 101.129 51.8663 101.149C51.8231 101.169 51.7848 101.197 51.7536 101.233C51.7225 101.269 51.6993 101.311 51.6856 101.357C51.6719 101.402 51.668 101.45 51.6741 101.497H51.6368ZM51.6368 106.16C51.6383 106.255 51.6757 106.345 51.7416 106.414C51.8074 106.482 51.8966 106.522 51.9912 106.527C52.1964 106.527 52.4203 106.347 52.3705 106.148C52.3149 106.016 52.2347 105.895 52.1342 105.793C51.8545 105.781 51.6493 105.961 51.6679 106.16H51.6368ZM52.0348 75.7871C52.1648 75.7231 52.2826 75.6368 52.383 75.5322C52.383 75.2151 52.1902 75.0285 51.985 75.0596C51.8899 75.0645 51.8004 75.1061 51.7354 75.1757C51.6705 75.2453 51.6351 75.3375 51.6368 75.4327C51.6344 75.4866 51.6445 75.5403 51.6664 75.5897C51.6883 75.639 51.7213 75.6826 51.7629 75.7169C51.8045 75.7513 51.8535 75.7755 51.9061 75.7877C51.9587 75.7999 52.0134 75.7997 52.0659 75.7871H52.0348ZM52.0348 82.1477C51.9882 82.1443 51.9414 82.1502 51.8971 82.1649C51.8528 82.1797 51.8119 82.203 51.7766 82.2337C51.7414 82.2643 51.7126 82.3016 51.6918 82.3434C51.671 82.3852 51.6586 82.4307 51.6555 82.4772C51.6555 82.67 51.8171 82.8814 52.1094 82.8938C52.1778 82.8068 52.3332 82.6949 52.3767 82.5456C52.3869 82.4976 52.3863 82.4478 52.3747 82.4C52.3632 82.3522 52.3411 82.3076 52.3101 82.2694C52.2791 82.2313 52.24 82.2006 52.1956 82.1795C52.1511 82.1584 52.1026 82.1476 52.0534 82.1477H52.0348ZM52.0348 89.2172C51.9841 89.218 51.9342 89.2287 51.8877 89.2489C51.8412 89.269 51.7992 89.2981 51.764 89.3344C51.7288 89.3708 51.7011 89.4138 51.6824 89.4609C51.6638 89.5079 51.6547 89.5582 51.6555 89.6089C51.6555 89.6556 51.6649 89.702 51.6831 89.745C51.7014 89.7881 51.7282 89.8271 51.7618 89.8596C51.7955 89.8921 51.8354 89.9174 51.879 89.9342C51.9227 89.9509 51.9694 89.9587 52.0161 89.957C52.0627 89.9623 52.1099 89.9577 52.1546 89.9435C52.1993 89.9294 52.2406 89.9061 52.2757 89.875C52.3109 89.844 52.3391 89.8059 52.3587 89.7633C52.3782 89.7207 52.3886 89.6744 52.3892 89.6275C52.3979 89.5288 52.3677 89.4306 52.3049 89.3539C52.2422 89.2772 52.1519 89.2281 52.0534 89.2172H52.0348ZM52.0348 98.699C51.9405 98.7019 51.8507 98.7398 51.7829 98.8053C51.715 98.8709 51.6741 98.9593 51.6679 99.0534C51.664 99.1045 51.6713 99.1558 51.6895 99.2038C51.7076 99.2517 51.7361 99.295 51.7729 99.3306C51.8098 99.3663 51.854 99.3933 51.9025 99.4099C51.9509 99.4265 52.0025 99.4321 52.0534 99.4265C52.1858 99.3716 52.3062 99.2913 52.4078 99.1902C52.4203 98.8607 52.2275 98.6804 52.0348 98.699ZM52.0348 84.5353C51.8358 84.5353 51.5995 84.7218 51.6493 84.9083C51.699 85.0949 51.8296 85.1819 51.985 85.3995C52.1591 85.2068 52.3146 85.1011 52.3643 84.9581C52.3722 84.9122 52.3707 84.8652 52.3598 84.8199C52.3489 84.7746 52.3288 84.732 52.3009 84.6948C52.2729 84.6575 52.2377 84.6263 52.1973 84.6032C52.1568 84.5801 52.1121 84.5654 52.0659 84.5602L52.0348 84.5353ZM52.0037 73.3684C52.2151 73.3684 52.4389 73.2192 52.3954 73.014C52.3092 72.8337 52.1983 72.6663 52.0659 72.5166C51.8918 72.728 51.7363 72.8462 51.699 72.9892C51.6617 73.1322 51.7923 73.3684 52.0037 73.3684ZM52.1218 71.0306C52.1902 70.9374 52.3519 70.8254 52.383 70.6887C52.414 70.5519 52.2773 70.3405 52.0659 70.3218C52.0196 70.3154 51.9726 70.3192 51.928 70.333C51.8835 70.3468 51.8425 70.3703 51.808 70.4018C51.7736 70.4332 51.7465 70.4719 51.7288 70.5151C51.711 70.5582 51.703 70.6047 51.7052 70.6513C51.6928 70.8814 51.8109 71.0057 52.1218 71.0493V71.0306ZM49.6783 64.098C49.8213 63.8679 49.9581 63.7311 49.9767 63.5881C49.9954 63.4451 49.8399 63.2586 49.6223 63.271C49.4047 63.2835 49.2555 63.4203 49.3114 63.6317C49.3674 63.8431 49.5042 63.8866 49.6783 64.098ZM52.0161 68.6431C52.1529 68.6431 52.271 68.5 52.4887 68.3633C52.2773 68.214 52.1653 68.0648 52.041 68.0524C51.9166 68.0399 51.7861 68.2016 51.7488 68.3135C51.7345 68.3537 51.7309 68.3968 51.7381 68.4388C51.7453 68.4807 51.7632 68.5202 51.7901 68.5532C51.8169 68.5863 51.8518 68.6119 51.8914 68.6277C51.9309 68.6434 51.9739 68.6487 52.0161 68.6431ZM42.5653 56.7861C42.7273 56.7097 42.8779 56.6114 43.013 56.4938C42.8265 56.3446 42.727 56.2078 42.5964 56.1705C42.4659 56.1332 42.2855 56.2389 42.2545 56.4317C42.2234 56.6244 42.3912 56.8296 42.5653 56.7861ZM52.0037 66.1684C52.1032 66.1684 52.2026 66.0752 52.3021 66.0254L52.3643 65.8824C52.271 65.8327 52.1778 65.7332 52.0907 65.7456C52.0364 65.7584 51.9854 65.7828 51.9414 65.8171C51.8974 65.8515 51.8614 65.895 51.8358 65.9446C51.8172 65.9881 51.9415 66.1622 52.0037 66.1684ZM47.5083 58.8752C47.5083 58.7819 47.3591 58.7135 47.2783 58.6389C47.2099 58.7135 47.0855 58.7943 47.0918 58.8627C47.098 58.9311 47.2099 59.0368 47.3156 59.1798C47.4151 59.0306 47.527 58.9311 47.5083 58.8752ZM49.6472 61.3622C49.6845 61.3622 49.8275 61.2752 49.8275 61.2254C49.8275 61.1757 49.7529 61.0451 49.6845 60.9083C49.5788 61.0203 49.4669 61.0887 49.4607 61.1633C49.4545 61.2379 49.5664 61.3622 49.6472 61.3933V61.3622ZM44.8907 56.6493C44.9467 56.5933 45.0462 56.5436 45.0462 56.4876C45.0462 56.4317 44.9716 56.3322 44.9032 56.1954C44.7975 56.3633 44.7228 56.4317 44.7353 56.4627C44.7477 56.4938 44.8348 56.5809 44.8907 56.6493Z" fill="#990000"/>
</g>
</g>
</svg>
